<?xml version="1.0" encoding="utf-8"?>
<!-- Generator: Adobe Illustrator 24.2.0, SVG Export Plug-In . SVG Version: 6.00 Build 0)  -->
<svg version="1.1" id="Layer_1" xmlns="http://www.w3.org/2000/svg" xmlns:xlink="http://www.w3.org/1999/xlink" x="0px" y="0px"
	 viewBox="-100 -200 500 500" style="enable-background:new 0 0 85.04 85.04;" xml:space="preserve">
<style type="text/css">
	.st0{fill:none;stroke:#000000;stroke-miterlimit:10;}
	.st1{fill:none;stroke:#FF0000;stroke-miterlimit:10;}
</style>

    <polygon class="st0" points="0.0,0.0 73.36602852545758,0.0 146.55934396381178,5.031174489106142 218.66478379128108,18.572950180848405 200.3232766599167,89.60930184496728 130.67513284435677,66.55045962239808 64.19527495977539,35.51817583205944 125.80371909231384,75.35501497833381 182.3400949748252,122.11196466145199 131.90095036357314,175.38922840954115 82.12213851381256,121.49447882830277 38.975702654149345,62.15680770610402 73.59716444773744,126.84010172297803 100.43038241466303,195.12298797669257 30.50338647633629,217.32184787172974 13.038609554815196,146.06487832713177 4.01220468498596,73.25623765362259 2.991318691226681,146.61516303687773 -6.586925749164891,219.35326429776003 -78.52002402998463,204.92400536598592 -59.30457179288596,134.1190582441778 -31.95434445542391,66.0416081877355 -68.36235673809074,129.736433591558 -111.9575024757016,188.74522454438747 -167.9134285288094,141.2951615187456 -116.82161019236561,88.64347360017939 -59.9323074819778,42.31657667491455 -122.62544298288549,80.42359574834879 -189.3387035833129,110.95087865491806 -215.32847589543184,42.34252729181888 -145.13324604375387,21.007020556136133 -72.92719363803724,8.01240099336496 -146.23216848195887,11.004858968052353 -219.385228795096,5.418813101719124 -208.9114042881963,-67.19573875806257 -137.16157038420366,-51.88118762694116 -67.69028138458737,-28.294874936525876 -133.28085186054253,-61.16509255425717 -194.58544680810508,-101.46795572690961 -150.2664816089117,-159.93507011842837 -94.89950212860252,-111.79909890328318 -45.53079878499065,-57.52843213228524 -87.00932227399055,-118.04377093800241 -121.13930311908788,-182.98773562381092 -54.05493852739916,-212.6906339491871 -28.912558340850744,-143.7672354538044 -11.98861648914627,-72.3798812949733 -18.98546211894093,-145.41150658724706 -17.408333650298715,-218.7605816147595 55.67033918596317,-212.27353929264905 44.30252503211373,-139.7935631408745 24.550719928984677,-69.13636013391803 53.78476356584394,-136.42636558967993 90.67471923106513,-199.8432822020182 151.47803210283473,-158.78805981294872 106.44197714704976,-100.87150004272598 54.95237636486946,-48.60874893938325 113.10879835916782,-93.33463319469281 176.08909230466267,-130.96516223877234 209.41621699399758,-65.60556538001121 141.97093497522334,-36.73156193389597 71.61593870953688,-15.928950510002654 "/> 

<polyline class="st1" points="64.19527495977539,35.51817583205944 73.36602852545758,0.0 "/> 

<polyline class="st1" points="130.67513284435677,66.55045962239808 146.55934396381178,5.031174489106142 "/> 

<polyline class="st1" points="64.19527495977539,35.51817583205944 0.0,0.0 "/> 

<polyline class="st1" points="38.975702654149345,62.15680770610402 64.19527495977539,35.51817583205944 "/> 

<polyline class="st1" points="82.12213851381256,121.49447882830277 125.80371909231384,75.35501497833381 "/> 

<polyline class="st1" points="38.975702654149345,62.15680770610402 0.0,0.0 "/> 

<polyline class="st1" points="4.01220468498596,73.25623765362259 38.975702654149345,62.15680770610402 "/> 

<polyline class="st1" points="13.038609554815196,146.06487832713177 73.59716444773744,126.84010172297803 "/> 

<polyline class="st1" points="4.01220468498596,73.25623765362259 0.0,0.0 "/> 

<polyline class="st1" points="-31.95434445542391,66.0416081877355 4.01220468498596,73.25623765362259 "/> 

<polyline class="st1" points="-59.30457179288596,134.1190582441778 2.991318691226681,146.61516303687773 "/> 

<polyline class="st1" points="-31.95434445542391,66.0416081877355 0.0,0.0 "/> 

<polyline class="st1" points="-59.9323074819778,42.31657667491455 -31.95434445542391,66.0416081877355 "/> 

<polyline class="st1" points="-116.82161019236561,88.64347360017939 -68.36235673809074,129.736433591558 "/> 

<polyline class="st1" points="-59.9323074819778,42.31657667491455 0.0,0.0 "/> 

<polyline class="st1" points="-72.92719363803724,8.01240099336496 -59.9323074819778,42.31657667491455 "/> 

<polyline class="st1" points="-145.13324604375387,21.007020556136133 -122.62544298288549,80.42359574834879 "/> 

<polyline class="st1" points="-72.92719363803724,8.01240099336496 0.0,0.0 "/> 

<polyline class="st1" points="-67.69028138458737,-28.294874936525876 -72.92719363803724,8.01240099336496 "/> 

<polyline class="st1" points="-137.16157038420366,-51.88118762694116 -146.23216848195887,11.004858968052353 "/> 

<polyline class="st1" points="-67.69028138458737,-28.294874936525876 0.0,0.0 "/> 

<polyline class="st1" points="-45.53079878499065,-57.52843213228524 -67.69028138458737,-28.294874936525876 "/> 

<polyline class="st1" points="-94.89950212860252,-111.79909890328318 -133.28085186054253,-61.16509255425717 "/> 

<polyline class="st1" points="-45.53079878499065,-57.52843213228524 0.0,0.0 "/> 

<polyline class="st1" points="-11.98861648914627,-72.3798812949733 -45.53079878499065,-57.52843213228524 "/> 

<polyline class="st1" points="-28.912558340850744,-143.7672354538044 -87.00932227399055,-118.04377093800241 "/> 

<polyline class="st1" points="-11.98861648914627,-72.3798812949733 0.0,0.0 "/> 

<polyline class="st1" points="24.550719928984677,-69.13636013391803 -11.98861648914627,-72.3798812949733 "/> 

<polyline class="st1" points="44.30252503211373,-139.7935631408745 -18.98546211894093,-145.41150658724706 "/> 

<polyline class="st1" points="24.550719928984677,-69.13636013391803 0.0,0.0 "/> 

<polyline class="st1" points="54.95237636486946,-48.60874893938325 24.550719928984677,-69.13636013391803 "/> 

<polyline class="st1" points="106.44197714704976,-100.87150004272598 53.78476356584394,-136.42636558967993 "/> 

<polyline class="st1" points="54.95237636486946,-48.60874893938325 0.0,0.0 "/> 

<polyline class="st1" points="71.61593870953688,-15.928950510002654 54.95237636486946,-48.60874893938325 "/> 

<polyline class="st1" points="141.97093497522334,-36.73156193389597 113.10879835916782,-93.33463319469281 "/> 

</svg>