<?xml version="1.0" encoding="utf-8"?>
<!-- Generator: Adobe Illustrator 24.2.0, SVG Export Plug-In . SVG Version: 6.00 Build 0)  -->
<svg version="1.1" id="Layer_1" xmlns="http://www.w3.org/2000/svg" xmlns:xlink="http://www.w3.org/1999/xlink" x="0px" y="0px"
	 viewBox="-100 -200 500 500" style="enable-background:new 0 0 85.04 85.04;" xml:space="preserve">
<style type="text/css">
	.st0{fill:none;stroke:#000000;stroke-miterlimit:10;}
	.st1{fill:none;stroke:#FF0000;stroke-miterlimit:10;}
</style>

    <polygon class="st0" points="0.0,0.0 55.30119363668334,0.0 110.57816705371005,1.6365291000370792 165.6847010464812,6.272467941901199 220.45816370586914,13.894134816186535 209.53430295078996,69.93014238352971 155.9087387894289,56.420113293342915 103.09596947130937,40.01787519627098 51.25185748456479,20.771834825643257 101.86656699668431,43.051269258449274 151.19670060470924,68.0464675144415 199.09667387019078,95.68366308143231 167.92485397416579,143.51338733584845 123.3004703597858,110.85016023443359 80.51571671633607,75.81179735442362 39.69686057803497,38.501704869914505 78.23695359109104,78.16129700330555 114.56645600589368,119.8552926373869 148.57815120206624,163.46064331278677 101.72337949790543,196.07958330835797 72.63526610769753,149.04657705699915 46.14421024430288,100.5033388369911 22.3283930357604,50.59313077960832 43.149803601771076,101.8248678151956 61.15834237327014,154.111716534136 76.3008620584792,207.29936655954134 20.6248609967831,219.93058913147473 11.332873410781652,165.41562802588885 5.015040638240414,110.47650711282589 1.6900080398979611,55.27536422735742 1.7435111784056048,110.57653198226217 -1.2062031368545334,165.7990020746104 -7.150429628382454,220.779800441489 -63.49409846680314,211.57350587146323 -51.629180171978845,157.56012112750287 -36.8485646653293,104.27076550288925 -19.19587290327764,51.86270800028818 -39.918112545500094,103.13463796057201 -63.3941042873311,153.2055859182393 -89.5545651403661,201.92778112328693 -138.31456249258923,172.23220003628182 -107.03031537210407,126.630468712281 -73.31582261215705,82.79492382481064 -37.270583345165775,40.85493403192564 -75.7338640332012,80.58902589716584 -116.29815380855162,118.17573116197119 -158.8437382306493,153.50412291455598 -192.8793278097609,107.66807247512594 -146.75722378225203,77.15621350656103 -99.04622692156941,49.19404627650032 -49.88714322554358,23.86409349705211 -100.45864791596998,46.241424235728886 -152.1707330242478,65.83944126287159 -204.87078443156435,82.60030637503495 -219.1975695445446,27.33632075863018 -164.992034363545,16.382692438143742 -110.27164712378871,8.38886744799894 -55.1979001275528,3.3784373829702012 -110.47160342586086,5.1219227808314045 -165.75842433760675,3.8611884255911377 -220.89519888598048,-0.40004496906675513 -213.41507042933463,-56.998742446621684 -159.06432093317875,-46.7900183907929 -105.34815849103417,-33.64483257502434 -52.4251117095108,-17.60197943094063 -104.30636717830993,-36.7476668989619 -155.0713564261218,-58.68252236489764 -204.57026042932029,-83.34181108383841 -176.37865785345093,-132.98653308011853 -129.84217702456513,-103.11048967231956 -84.99678924002527,-70.75136094337833 -41.97484343384208,-36.00464603834327 -82.86581711796248,-73.23568535779445 -121.67461414992937,-112.63237672361277 -158.2867009473352,-154.07845154356602 -113.5121888632203,-189.49889684727657 -81.60508653271602,-144.33077934706776 -52.19792839435654,-97.49659239066308 -25.377501656909004,-49.13455431054121 -49.289849104971566,-98.99858600840017 -70.45903718060809,-150.08760140173374 -88.82259079743639,-202.2508251920998 -34.02224468763511,-218.259789684836 -21.417207807808126,-164.41431575340755 -11.75485791727921,-109.9637784536256 -5.063710807108027,-55.06887369924975 -8.495549812388404,-110.2634794020155 -8.924973114124306,-165.56300574058258 -6.35071338653195,-220.80425124153805 50.45014186686024,-215.05727635322603 41.907148383512535,-160.41993307973388 30.409671645841463,-106.32714200450222 15.99164332141012,-52.93854325085592 33.542893945264986,-105.38066009581728 53.91612300396918,-156.79226924553674 77.051204467144,-207.02164335406215 127.53427620086558,-180.36035407144078 99.09434478416321,-132.93259512527925 68.1208079032568,-87.11925612091198 34.705075506666034,-43.05554263644291 70.66909461494491,-85.0652004215439 108.86138571577538,-125.05983653829554 149.16923467590232,-162.9214177235753 185.9414482021132,-119.2502694644964 141.76951037979205,-85.97772933509037 95.85588281319326,-55.153050564378006 48.33606705476629,-26.867203786756086 97.44604598842301,-52.29223056703181 147.86426759418848,-75.01281479706152 199.44193623857845,-94.96190286773394 217.11812556598494,-40.676387223638045 163.68301186304868,-26.431716599288286 109.55318869344907,-15.109867754253138 54.88840547063985,-6.744254038259282 "/> 

<polyline class="st1" points="51.25185748456479,20.771834825643257 55.30119363668334,0.0 "/> 

<polyline class="st1" points="103.09596947130937,40.01787519627098 110.57816705371005,1.6365291000370792 "/> 

<polyline class="st1" points="155.9087387894289,56.420113293342915 165.6847010464812,6.272467941901199 "/> 

<polyline class="st1" points="51.25185748456479,20.771834825643257 0.0,0.0 "/> 

<polyline class="st1" points="39.69686057803497,38.501704869914505 51.25185748456479,20.771834825643257 "/> 

<polyline class="st1" points="80.51571671633607,75.81179735442362 101.86656699668431,43.051269258449274 "/> 

<polyline class="st1" points="123.3004703597858,110.85016023443359 151.19670060470924,68.0464675144415 "/> 

<polyline class="st1" points="39.69686057803497,38.501704869914505 0.0,0.0 "/> 

<polyline class="st1" points="22.3283930357604,50.59313077960832 39.69686057803497,38.501704869914505 "/> 

<polyline class="st1" points="46.14421024430288,100.5033388369911 78.23695359109104,78.16129700330555 "/> 

<polyline class="st1" points="72.63526610769753,149.04657705699915 114.56645600589368,119.8552926373869 "/> 

<polyline class="st1" points="22.3283930357604,50.59313077960832 0.0,0.0 "/> 

<polyline class="st1" points="1.6900080398979611,55.27536422735742 22.3283930357604,50.59313077960832 "/> 

<polyline class="st1" points="5.015040638240414,110.47650711282589 43.149803601771076,101.8248678151956 "/> 

<polyline class="st1" points="11.332873410781652,165.41562802588885 61.15834237327014,154.111716534136 "/> 

<polyline class="st1" points="1.6900080398979611,55.27536422735742 0.0,0.0 "/> 

<polyline class="st1" points="-19.19587290327764,51.86270800028818 1.6900080398979611,55.27536422735742 "/> 

<polyline class="st1" points="-36.8485646653293,104.27076550288925 1.7435111784056048,110.57653198226217 "/> 

<polyline class="st1" points="-51.629180171978845,157.56012112750287 -1.2062031368545334,165.7990020746104 "/> 

<polyline class="st1" points="-19.19587290327764,51.86270800028818 0.0,0.0 "/> 

<polyline class="st1" points="-37.270583345165775,40.85493403192564 -19.19587290327764,51.86270800028818 "/> 

<polyline class="st1" points="-73.31582261215705,82.79492382481064 -39.918112545500094,103.13463796057201 "/> 

<polyline class="st1" points="-107.03031537210407,126.630468712281 -63.3941042873311,153.2055859182393 "/> 

<polyline class="st1" points="-37.270583345165775,40.85493403192564 0.0,0.0 "/> 

<polyline class="st1" points="-49.88714322554358,23.86409349705211 -37.270583345165775,40.85493403192564 "/> 

<polyline class="st1" points="-99.04622692156941,49.19404627650032 -75.7338640332012,80.58902589716584 "/> 

<polyline class="st1" points="-146.75722378225203,77.15621350656103 -116.29815380855162,118.17573116197119 "/> 

<polyline class="st1" points="-49.88714322554358,23.86409349705211 0.0,0.0 "/> 

<polyline class="st1" points="-55.1979001275528,3.3784373829702012 -49.88714322554358,23.86409349705211 "/> 

<polyline class="st1" points="-110.27164712378871,8.38886744799894 -100.45864791596998,46.241424235728886 "/> 

<polyline class="st1" points="-164.992034363545,16.382692438143742 -152.1707330242478,65.83944126287159 "/> 

<polyline class="st1" points="-55.1979001275528,3.3784373829702012 0.0,0.0 "/> 

<polyline class="st1" points="-52.4251117095108,-17.60197943094063 -55.1979001275528,3.3784373829702012 "/> 

<polyline class="st1" points="-105.34815849103417,-33.64483257502434 -110.47160342586086,5.1219227808314045 "/> 

<polyline class="st1" points="-159.06432093317875,-46.7900183907929 -165.75842433760675,3.8611884255911377 "/> 

<polyline class="st1" points="-52.4251117095108,-17.60197943094063 0.0,0.0 "/> 

<polyline class="st1" points="-41.97484343384208,-36.00464603834327 -52.4251117095108,-17.60197943094063 "/> 

<polyline class="st1" points="-84.99678924002527,-70.75136094337833 -104.30636717830993,-36.7476668989619 "/> 

<polyline class="st1" points="-129.84217702456513,-103.11048967231956 -155.0713564261218,-58.68252236489764 "/> 

<polyline class="st1" points="-41.97484343384208,-36.00464603834327 0.0,0.0 "/> 

<polyline class="st1" points="-25.377501656909004,-49.13455431054121 -41.97484343384208,-36.00464603834327 "/> 

<polyline class="st1" points="-52.19792839435654,-97.49659239066308 -82.86581711796248,-73.23568535779445 "/> 

<polyline class="st1" points="-81.60508653271602,-144.33077934706776 -121.67461414992937,-112.63237672361277 "/> 

<polyline class="st1" points="-25.377501656909004,-49.13455431054121 0.0,0.0 "/> 

<polyline class="st1" points="-5.063710807108027,-55.06887369924975 -25.377501656909004,-49.13455431054121 "/> 

<polyline class="st1" points="-11.75485791727921,-109.9637784536256 -49.289849104971566,-98.99858600840017 "/> 

<polyline class="st1" points="-21.417207807808126,-164.41431575340755 -70.45903718060809,-150.08760140173374 "/> 

<polyline class="st1" points="-5.063710807108027,-55.06887369924975 0.0,0.0 "/> 

<polyline class="st1" points="15.99164332141012,-52.93854325085592 -5.063710807108027,-55.06887369924975 "/> 

<polyline class="st1" points="30.409671645841463,-106.32714200450222 -8.495549812388404,-110.2634794020155 "/> 

<polyline class="st1" points="41.907148383512535,-160.41993307973388 -8.924973114124306,-165.56300574058258 "/> 

<polyline class="st1" points="15.99164332141012,-52.93854325085592 0.0,0.0 "/> 

<polyline class="st1" points="34.705075506666034,-43.05554263644291 15.99164332141012,-52.93854325085592 "/> 

<polyline class="st1" points="68.1208079032568,-87.11925612091198 33.542893945264986,-105.38066009581728 "/> 

<polyline class="st1" points="99.09434478416321,-132.93259512527925 53.91612300396918,-156.79226924553674 "/> 

<polyline class="st1" points="34.705075506666034,-43.05554263644291 0.0,0.0 "/> 

<polyline class="st1" points="48.33606705476629,-26.867203786756086 34.705075506666034,-43.05554263644291 "/> 

<polyline class="st1" points="95.85588281319326,-55.153050564378006 70.66909461494491,-85.0652004215439 "/> 

<polyline class="st1" points="141.76951037979205,-85.97772933509037 108.86138571577538,-125.05983653829554 "/> 

<polyline class="st1" points="48.33606705476629,-26.867203786756086 0.0,0.0 "/> 

<polyline class="st1" points="54.88840547063985,-6.744254038259282 48.33606705476629,-26.867203786756086 "/> 

<polyline class="st1" points="109.55318869344907,-15.109867754253138 97.44604598842301,-52.29223056703181 "/> 

<polyline class="st1" points="163.68301186304868,-26.431716599288286 147.86426759418848,-75.01281479706152 "/> 

</svg>