<?xml version="1.0" encoding="utf-8"?>
<!-- Generator: Adobe Illustrator 24.2.0, SVG Export Plug-In . SVG Version: 6.00 Build 0)  -->
<svg version="1.1" id="Layer_1" xmlns="http://www.w3.org/2000/svg" xmlns:xlink="http://www.w3.org/1999/xlink" x="0px" y="0px"
	 viewBox="-100 -200 500 500" style="enable-background:new 0 0 85.04 85.04;" xml:space="preserve">
<style type="text/css">
	.st0{fill:none;stroke:#000000;stroke-miterlimit:10;}
	.st1{fill:none;stroke:#FF0000;stroke-miterlimit:10;}
</style>

    <polygon class="st0" points="0.0,0.0 44.34362788086224,0.0 88.68207209804211,0.6780103512576502 132.98222015666337,2.6412259839933765 177.20682661075284,5.887996320387756 221.31870952610592,10.415591631208471 213.93162563418554,57.65167203857694 170.54359501547995,48.49546470875685 127.43926667155559,38.085171165559274 84.65488066035577,26.42954388595597 42.226408047610754,13.53838236397011 84.2408791985576,27.720820361107233 125.82650159166515,43.11540849506701 166.94831202432616,59.70920373234391 207.5717372448495,77.48825480344823 186.11588931133002,120.21369090574376 147.594899237128,98.24802093327042 109.72694609465468,75.17475808564038 72.543867447997,51.01330125885004 36.07692505151796,25.78396425035411 71.75539814615433,52.11652757547861 106.65542129603608,79.47243585457073 140.74765223068204,107.82868954815923 174.00342783267553,137.16144807418675 140.5276670208458,171.29632376968058 110.55214472315934,138.61872599050946 81.53663453614612,105.08579438255558 53.5055313131963,70.72572183110839 26.482402265400843,35.567396642007346 52.41788628986364,71.53554925029707 77.29965453774543,108.2405208821494 101.10678760819528,145.6514517527155 123.81926960222843,183.7368885403789 81.52024661980272,206.02161325058955 62.95259977042829,165.75252058495695 45.56026721150525,124.96203024963242 29.3578715845158,83.6844369382135 14.359035088874748,41.9544448771861 28.07491169749774,84.12353382268518 40.56242760075634,126.67255590548099 51.811083892455024,169.5657379425788 61.81142324031518,212.76701739775265 14.72833535938691,221.07358927033863 9.341616459663555,177.05835789378273 5.233281502297473,132.90545405366748 2.4067845788527187,88.65199940006852 0.8645020727742079,44.335200121377056 1.0510215958088125,88.6784357284447 -0.048166505553268735,133.00843820029445 -2.4321380865216256,177.28793699079023 -6.098888817796869,221.47970401487606 -53.47000677842361,215.0149160185039 -45.16141184553268,171.45662652181304 -35.59343812220568,128.15753631813666 -24.774129903191024,85.15404921187582 -12.712583545440086,42.48232047848362 -26.07323213755232,84.76530053943101 -40.65416111986236,126.64314484461477 -56.44311154456874,168.08064450521863 -73.426808817211,209.04296085314544 -116.5624176135665,188.4241453089531 -95.35190906446357,149.4822442161094 -73.02128685015475,111.17166284283608 -49.58932548990631,73.52461089386927 -25.07572545627051,36.57274021013643 -50.70771375091873,72.7577994155516 -77.37802879325322,108.18450726681839 -105.06424745780993,142.82307868214573 -133.7430924959416,176.64439120716787 -168.52410801932865,143.84046979768453 -136.4371091907855,113.2335777664204 -103.47622315947798,83.5698402125056 -69.66916186213092,54.8741969879009 -35.04434865916735,27.170774017151203 -70.5000395740225,53.80254668414883 -106.7129522125054,79.39516850908086 -143.65264048943772,103.92712243940304 -181.28804728144002,127.37778318141406 -204.3931780901846,85.52125166017528 -164.49372472108254,66.17206680697686 -124.05005941393833,47.98780795048025 -83.0961852684515,30.98376354592728 -41.66653434351415,15.174229780688663 -83.56021066986028,29.70960791473559 -125.85769545542415,43.02426579435743 -168.52342699774152,55.107009091940334 -211.5215339900854,65.94767921473886 -220.74443642058048,19.035480679227646 -176.84258727453346,12.791685743924226 -132.77816907097852,7.823347790584656 -88.58822906549955,4.1346439601651035 -44.309920046409054,1.7286755384455734 -88.64109167350183,2.779654037573323 -132.9840982187832,2.544911281525245 -177.30165820291393,1.0246446307847066 -221.5565115408067,-1.779867747150142 -216.01647677967097,-49.26801695853824 -172.30448540788382,-41.8101926143213 -128.82709182273527,-33.088175606858925 -85.62084973758272,-23.109298990947977 -42.72208489456947,-11.881952528838937 -85.25750162229777,-24.41573318093573 -127.41164959306204,-38.17746063410434 -169.1490876151372,-53.15556468601334 -210.43472484659554,-69.33745246305624 -190.66077913880352,-112.86683761634029 -151.31276928829635,-92.4195528469441 -112.57412197337173,-70.84005939027877 -74.47740679613862,-48.146500252471434 -37.05465365286312,-24.357955092797518 -73.73254461513909,-49.27962534572757 -109.67247107187637,-75.25420946021725 -144.84421645162337,-102.25986924809553 -179.21821003284253,-130.273899642073 -147.09859717056455,-165.68783433246062 -115.87196943464438,-134.20363108895052 -85.57128003897029,-101.82731944319227 -56.2220043541514,-68.58611984972272 -27.848817847647204,-34.507979919504834 -55.16675611648915,-69.43773202821761 -81.46050347087393,-105.14482073200539 -106.70795338544116,-141.59922521826462 -130.8878790116824,-178.77029636701997 -89.48974909689395,-202.68705075042143 -69.36638108583114,-163.1724029153752 -50.39710797605604,-123.09093573510417 -32.597878225253865,-82.47634779044395 -15.983656574607158,-41.36278588467416 -31.333011170983532,-82.96512532743967 -45.469749973572725,-124.99499505914065 -58.38198748843418,-167.41705837525228 -70.0588677237526,-210.1956488336395 -23.33539039564502,-220.3313760915857 -16.236892762465466,-176.55959676987962 -10.410440335103054,-132.6004135910709 -5.860931716127109,-88.49078533416711 -2.5921919148185584,-44.2677972652032 -4.507229901119029,-88.57005412811493 -5.137021718785228,-132.9092094640343 -4.481037868974511,-177.24798503153465 -2.539829871537677,-221.54910290848076 45.04729980320103,-216.93592721301252 38.44308085179386,-173.0868493928546 30.570335898389068,-129.4476786796637 21.435683970454228,-86.05510480126999 11.046805046494548,-42.945610158677745 22.748953525524886,-85.7172953559097 35.686248459909656,-128.13172371958245 49.84781279075337,-170.15323522666364 65.22174015199852,-211.74650019982417 109.128355646193,-192.82494063084 89.45206690277193,-153.08577865022048 68.6319048154603,-113.93379039554242 46.68537398088251,-75.40189298621016 23.63092599264089,-37.522482198899255 47.83280519260411,-74.67926323314347 73.10178514342657,-111.11874711918827 99.41662089517476,-146.8102972815852 126.75518819237229,-181.72390597179347 162.78858080907017,-150.30081068809238 131.91914065551765,-118.46631684505107 100.13971000081696,-87.54019324542341 67.47700747051151,-57.54844109498783 33.958494302898366,-28.516276024691614 68.34903040810276,-56.509996035312135 103.53672250531928,-83.49487436573773 139.4919864657727,-109.44822342073446 176.18459282297184,-134.348222865554 200.90387974977088,-93.42423045879781 161.78905741733098,-72.53432841168285 122.08502378698503,-52.78725148579997 81.82516011148931,-34.19960207908697 41.043314958921464,-16.787007798269357 82.33850399415262,-32.94450439213894 124.08478263889553,-47.897950581959805 166.24705261844943,-61.63477422527666 208.7898659124928,-74.14342605769058 219.83456529229886,-27.62643006388884 176.2094939477413,-19.675927952785706 132.3722551808309,-12.993575752454731 88.35970524554541,-7.584991665063701 44.208847789109306,-3.454722969464761 "/> 

<polyline class="st1" points="42.226408047610754,13.53838236397011 44.34362788086224,0.0 "/> 

<polyline class="st1" points="84.65488066035577,26.42954388595597 88.68207209804211,0.6780103512576502 "/> 

<polyline class="st1" points="127.43926667155559,38.085171165559274 132.98222015666337,2.6412259839933765 "/> 

<polyline class="st1" points="170.54359501547995,48.49546470875685 177.20682661075284,5.887996320387756 "/> 

<polyline class="st1" points="42.226408047610754,13.53838236397011 0.0,0.0 "/> 

<polyline class="st1" points="36.07692505151796,25.78396425035411 42.226408047610754,13.53838236397011 "/> 

<polyline class="st1" points="72.543867447997,51.01330125885004 84.2408791985576,27.720820361107233 "/> 

<polyline class="st1" points="109.72694609465468,75.17475808564038 125.82650159166515,43.11540849506701 "/> 

<polyline class="st1" points="147.594899237128,98.24802093327042 166.94831202432616,59.70920373234391 "/> 

<polyline class="st1" points="36.07692505151796,25.78396425035411 0.0,0.0 "/> 

<polyline class="st1" points="26.482402265400843,35.567396642007346 36.07692505151796,25.78396425035411 "/> 

<polyline class="st1" points="53.5055313131963,70.72572183110839 71.75539814615433,52.11652757547861 "/> 

<polyline class="st1" points="81.53663453614612,105.08579438255558 106.65542129603608,79.47243585457073 "/> 

<polyline class="st1" points="110.55214472315934,138.61872599050946 140.74765223068204,107.82868954815923 "/> 

<polyline class="st1" points="26.482402265400843,35.567396642007346 0.0,0.0 "/> 

<polyline class="st1" points="14.359035088874748,41.9544448771861 26.482402265400843,35.567396642007346 "/> 

<polyline class="st1" points="29.3578715845158,83.6844369382135 52.41788628986364,71.53554925029707 "/> 

<polyline class="st1" points="45.56026721150525,124.96203024963242 77.29965453774543,108.2405208821494 "/> 

<polyline class="st1" points="62.95259977042829,165.75252058495695 101.10678760819528,145.6514517527155 "/> 

<polyline class="st1" points="14.359035088874748,41.9544448771861 0.0,0.0 "/> 

<polyline class="st1" points="0.8645020727742079,44.335200121377056 14.359035088874748,41.9544448771861 "/> 

<polyline class="st1" points="2.4067845788527187,88.65199940006852 28.07491169749774,84.12353382268518 "/> 

<polyline class="st1" points="5.233281502297473,132.90545405366748 40.56242760075634,126.67255590548099 "/> 

<polyline class="st1" points="9.341616459663555,177.05835789378273 51.811083892455024,169.5657379425788 "/> 

<polyline class="st1" points="0.8645020727742079,44.335200121377056 0.0,0.0 "/> 

<polyline class="st1" points="-12.712583545440086,42.48232047848362 0.8645020727742079,44.335200121377056 "/> 

<polyline class="st1" points="-24.774129903191024,85.15404921187582 1.0510215958088125,88.6784357284447 "/> 

<polyline class="st1" points="-35.59343812220568,128.15753631813666 -0.048166505553268735,133.00843820029445 "/> 

<polyline class="st1" points="-45.16141184553268,171.45662652181304 -2.4321380865216256,177.28793699079023 "/> 

<polyline class="st1" points="-12.712583545440086,42.48232047848362 0.0,0.0 "/> 

<polyline class="st1" points="-25.07572545627051,36.57274021013643 -12.712583545440086,42.48232047848362 "/> 

<polyline class="st1" points="-49.58932548990631,73.52461089386927 -26.07323213755232,84.76530053943101 "/> 

<polyline class="st1" points="-73.02128685015475,111.17166284283608 -40.65416111986236,126.64314484461477 "/> 

<polyline class="st1" points="-95.35190906446357,149.4822442161094 -56.44311154456874,168.08064450521863 "/> 

<polyline class="st1" points="-25.07572545627051,36.57274021013643 0.0,0.0 "/> 

<polyline class="st1" points="-35.04434865916735,27.170774017151203 -25.07572545627051,36.57274021013643 "/> 

<polyline class="st1" points="-69.66916186213092,54.8741969879009 -50.70771375091873,72.7577994155516 "/> 

<polyline class="st1" points="-103.47622315947798,83.5698402125056 -77.37802879325322,108.18450726681839 "/> 

<polyline class="st1" points="-136.4371091907855,113.2335777664204 -105.06424745780993,142.82307868214573 "/> 

<polyline class="st1" points="-35.04434865916735,27.170774017151203 0.0,0.0 "/> 

<polyline class="st1" points="-41.66653434351415,15.174229780688663 -35.04434865916735,27.170774017151203 "/> 

<polyline class="st1" points="-83.0961852684515,30.98376354592728 -70.5000395740225,53.80254668414883 "/> 

<polyline class="st1" points="-124.05005941393833,47.98780795048025 -106.7129522125054,79.39516850908086 "/> 

<polyline class="st1" points="-164.49372472108254,66.17206680697686 -143.65264048943772,103.92712243940304 "/> 

<polyline class="st1" points="-41.66653434351415,15.174229780688663 0.0,0.0 "/> 

<polyline class="st1" points="-44.309920046409054,1.7286755384455734 -41.66653434351415,15.174229780688663 "/> 

<polyline class="st1" points="-88.58822906549955,4.1346439601651035 -83.56021066986028,29.70960791473559 "/> 

<polyline class="st1" points="-132.77816907097852,7.823347790584656 -125.85769545542415,43.02426579435743 "/> 

<polyline class="st1" points="-176.84258727453346,12.791685743924226 -168.52342699774152,55.107009091940334 "/> 

<polyline class="st1" points="-44.309920046409054,1.7286755384455734 0.0,0.0 "/> 

<polyline class="st1" points="-42.72208489456947,-11.881952528838937 -44.309920046409054,1.7286755384455734 "/> 

<polyline class="st1" points="-85.62084973758272,-23.109298990947977 -88.64109167350183,2.779654037573323 "/> 

<polyline class="st1" points="-128.82709182273527,-33.088175606858925 -132.9840982187832,2.544911281525245 "/> 

<polyline class="st1" points="-172.30448540788382,-41.8101926143213 -177.30165820291393,1.0246446307847066 "/> 

<polyline class="st1" points="-42.72208489456947,-11.881952528838937 0.0,0.0 "/> 

<polyline class="st1" points="-37.05465365286312,-24.357955092797518 -42.72208489456947,-11.881952528838937 "/> 

<polyline class="st1" points="-74.47740679613862,-48.146500252471434 -85.25750162229777,-24.41573318093573 "/> 

<polyline class="st1" points="-112.57412197337173,-70.84005939027877 -127.41164959306204,-38.17746063410434 "/> 

<polyline class="st1" points="-151.31276928829635,-92.4195528469441 -169.1490876151372,-53.15556468601334 "/> 

<polyline class="st1" points="-37.05465365286312,-24.357955092797518 0.0,0.0 "/> 

<polyline class="st1" points="-27.848817847647204,-34.507979919504834 -37.05465365286312,-24.357955092797518 "/> 

<polyline class="st1" points="-56.2220043541514,-68.58611984972272 -73.73254461513909,-49.27962534572757 "/> 

<polyline class="st1" points="-85.57128003897029,-101.82731944319227 -109.67247107187637,-75.25420946021725 "/> 

<polyline class="st1" points="-115.87196943464438,-134.20363108895052 -144.84421645162337,-102.25986924809553 "/> 

<polyline class="st1" points="-27.848817847647204,-34.507979919504834 0.0,0.0 "/> 

<polyline class="st1" points="-15.983656574607158,-41.36278588467416 -27.848817847647204,-34.507979919504834 "/> 

<polyline class="st1" points="-32.597878225253865,-82.47634779044395 -55.16675611648915,-69.43773202821761 "/> 

<polyline class="st1" points="-50.39710797605604,-123.09093573510417 -81.46050347087393,-105.14482073200539 "/> 

<polyline class="st1" points="-69.36638108583114,-163.1724029153752 -106.70795338544116,-141.59922521826462 "/> 

<polyline class="st1" points="-15.983656574607158,-41.36278588467416 0.0,0.0 "/> 

<polyline class="st1" points="-2.5921919148185584,-44.2677972652032 -15.983656574607158,-41.36278588467416 "/> 

<polyline class="st1" points="-5.860931716127109,-88.49078533416711 -31.333011170983532,-82.96512532743967 "/> 

<polyline class="st1" points="-10.410440335103054,-132.6004135910709 -45.469749973572725,-124.99499505914065 "/> 

<polyline class="st1" points="-16.236892762465466,-176.55959676987962 -58.38198748843418,-167.41705837525228 "/> 

<polyline class="st1" points="-2.5921919148185584,-44.2677972652032 0.0,0.0 "/> 

<polyline class="st1" points="11.046805046494548,-42.945610158677745 -2.5921919148185584,-44.2677972652032 "/> 

<polyline class="st1" points="21.435683970454228,-86.05510480126999 -4.507229901119029,-88.57005412811493 "/> 

<polyline class="st1" points="30.570335898389068,-129.4476786796637 -5.137021718785228,-132.9092094640343 "/> 

<polyline class="st1" points="38.44308085179386,-173.0868493928546 -4.481037868974511,-177.24798503153465 "/> 

<polyline class="st1" points="11.046805046494548,-42.945610158677745 0.0,0.0 "/> 

<polyline class="st1" points="23.63092599264089,-37.522482198899255 11.046805046494548,-42.945610158677745 "/> 

<polyline class="st1" points="46.68537398088251,-75.40189298621016 22.748953525524886,-85.7172953559097 "/> 

<polyline class="st1" points="68.6319048154603,-113.93379039554242 35.686248459909656,-128.13172371958245 "/> 

<polyline class="st1" points="89.45206690277193,-153.08577865022048 49.84781279075337,-170.15323522666364 "/> 

<polyline class="st1" points="23.63092599264089,-37.522482198899255 0.0,0.0 "/> 

<polyline class="st1" points="33.958494302898366,-28.516276024691614 23.63092599264089,-37.522482198899255 "/> 

<polyline class="st1" points="67.47700747051151,-57.54844109498783 47.83280519260411,-74.67926323314347 "/> 

<polyline class="st1" points="100.13971000081696,-87.54019324542341 73.10178514342657,-111.11874711918827 "/> 

<polyline class="st1" points="131.91914065551765,-118.46631684505107 99.41662089517476,-146.8102972815852 "/> 

<polyline class="st1" points="33.958494302898366,-28.516276024691614 0.0,0.0 "/> 

<polyline class="st1" points="41.043314958921464,-16.787007798269357 33.958494302898366,-28.516276024691614 "/> 

<polyline class="st1" points="81.82516011148931,-34.19960207908697 68.34903040810276,-56.509996035312135 "/> 

<polyline class="st1" points="122.08502378698503,-52.78725148579997 103.53672250531928,-83.49487436573773 "/> 

<polyline class="st1" points="161.78905741733098,-72.53432841168285 139.4919864657727,-109.44822342073446 "/> 

<polyline class="st1" points="41.043314958921464,-16.787007798269357 0.0,0.0 "/> 

<polyline class="st1" points="44.208847789109306,-3.454722969464761 41.043314958921464,-16.787007798269357 "/> 

<polyline class="st1" points="88.35970524554541,-7.584991665063701 82.33850399415262,-32.94450439213894 "/> 

<polyline class="st1" points="132.3722551808309,-12.993575752454731 124.08478263889553,-47.897950581959805 "/> 

<polyline class="st1" points="176.2094939477413,-19.675927952785706 166.24705261844943,-61.63477422527666 "/> 

</svg>