<?xml version="1.0" encoding="utf-8"?>
<!-- Generator: Adobe Illustrator 24.2.0, SVG Export Plug-In . SVG Version: 6.00 Build 0)  -->
<svg version="1.1" id="Layer_1" xmlns="http://www.w3.org/2000/svg" xmlns:xlink="http://www.w3.org/1999/xlink" x="0px" y="0px"
	 viewBox="-100 -200 500 500" style="enable-background:new 0 0 85.04 85.04;" xml:space="preserve">
<style type="text/css">
	.st0{fill:none;stroke:#000000;stroke-miterlimit:10;}
	.st1{fill:none;stroke:#FF0000;stroke-miterlimit:10;}
</style>

    <polygon class="st0" points="0.0,0.0 36.999550546763054,0.0 73.99763942417397,0.32887700083357657 110.98465199612967,1.2920185607637522 147.94971575623205,2.8891415597966574 184.88196465003952,5.119776516111023 221.77054226919483,7.9832677240645715 216.3914849101879,49.19991097848388 180.00354625937206,42.50030939279718 143.7358169790626,35.17784030698625 107.59895813894924,27.234656195296765 71.60359233874004,18.673091994077208 35.760300585598095,9.495664415413323 71.43478457822867,19.308815414048727 106.93578388465706,29.732144484333602 142.25286281907736,40.76258763963788 177.37563975994257,52.396902429289284 212.293790201691,64.6316688917069 196.5169466435169,103.08732057744035 163.06717665497035,87.27341440673715 129.89344418115127,70.88835369833717 97.0055007968284,53.936954917940014 64.41301406772294,36.42420100898673 32.12556470868183,18.35523992789991 64.08670652247648,36.995308453014886 95.72357653971369,56.180594381947785 127.02687495357591,75.90545810961814 157.98740001218803,96.16410141951243 188.59605072351582,116.95056918809706 163.47826908880575,150.06918910174346 135.207377476388,126.20030919292913 107.34986051563074,101.85024780812778 79.91390705473584,77.02616276246928 52.90758202133059,51.735351212569526 26.33882405174429,25.985247511496425 52.445633152157285,52.20358573604963 78.09910543716155,78.86565805582612 103.29169994785947,105.96362702920175 128.01601120254384,133.48952708067986 152.26477137357432,161.43526684240953 119.48862398849876,186.99832811889516 98.29040139642359,156.67338624592026 77.61519974192097,125.98946900564397 57.46909659781021,94.95559607993059 37.85801400591351,63.580890021765185 18.787716736244167,31.87457357363586 37.291368519423216,63.91488585908853 55.242986276739266,96.26772438305252 72.63729304567632,128.92357887639852 89.46917568790582,161.8728499970271 105.73368639231813,195.10585215164036 67.49475881258567,211.40095438468984 54.78921689698352,176.65133646890044 42.681306445404196,141.6889960844381 31.174586635102205,106.52421057578356 20.272439920513754,71.16731679711484 9.978071038968714,35.62870807373976 19.639055866831434,71.34470046955988 28.686288726233006,107.22107595887371 37.1171101405002,143.24728851228 44.92904183000465,179.41274805506737 52.119787440665114,215.70682358021668 10.979602107381154,221.64240189884788 7.617850792173357,184.7958909547005 4.888307750399576,147.89716014393176 2.7917753440817705,110.95705602210049 1.3288698587864722,73.98643730664529 0.5000213224652494,36.99617168491295 0.6711759243328501,73.99532636126649 0.2079742012167003,110.9919773560008 -0.8894476865569274,147.97524932945808 -2.6207671466600004,184.93427087480669 -4.985475249589918,221.85817771374252 -46.271048477295324,217.03662376368325 -40.06381455459272,180.5614680040251 -33.23214547312363,144.19809304756967 -25.778049434162618,107.95718807950324 -17.703717604317784,71.84940628438285 -9.011523471426443,35.885361714582245 -18.34166427989178,71.6892052674284 -28.28427195361523,107.32782607840942 -38.83642381628339,142.79074800723058 -49.99501801320025,178.06754656111025 -61.756774423091706,213.1478519591089 -100.42212654386364,197.89214861215453 -85.06171321245544,164.23172016938554 -69.12646706107756,130.83958530565653 -52.62107233032364,97.72555979614656 -35.55038085864564,64.89937766448139 -17.919410656132428,32.370688321371276 -36.125845951206465,64.58081800923121 -54.8818311513288,96.47407372004358 -74.18185284638835,128.0410802812097 -94.0202377041864,159.27255842260357 -114.39115413813889,190.1593275042573 -147.84619768302088,165.49141310835412 -124.36155752979687,136.90053313700574 -100.3901933928734,108.71648725857494 -75.93915176754219,80.94756030597564 -51.015620152550255,53.601915085959874 -25.626924937300323,26.687589979622548 -51.49005481039191,53.1463362430053 -77.8030047650074,79.15778382572115 -104.55803998568479,104.71428654034915 -131.74729570391779,129.808331932653 -159.36277951004143,154.4325434899029 -185.3664515038837,122.00485498038651 -155.33075711974186,100.39874928026317 -124.92905191276307,79.31076547027246 -94.17027260725638,58.74710246249078 -63.06346089114268,38.71380504242721 -31.61776075810756,19.216762092130622 -63.40508401840766,38.151725007532846 -95.51236530481137,56.53892786871387 -127.9301665308949,74.37296567086665 -160.6489583314369,91.64859601465606 -193.65912286362033,108.36074064724755 -210.46950757867438,70.34552126125118 -175.89476897719942,57.171524475835284 -141.09925078985003,44.59222979225654 -106.0931813229373,32.611334953382695 -70.88685077531176,21.23236179963096 -35.49060821351095,10.458655233706839 -71.07277796173345,20.60143279565471 -106.82361055696268,30.132681895870743 -142.7325968737219,39.04960077883004 -178.78918129650356,47.349568274265785 -214.9827648226425,55.030144567675116 -221.47378000669457,13.97393113884118 -184.67606550958206,10.11453371806833 -147.8175920914928,6.886581123856068 -110.90919447413577,4.291022228059674 -73.96172205467326,2.328620007430576 -36.98603571648943,0.999951319336235 -73.97949854038849,1.6711062636466387 -110.97903076378523,1.7079289780819948 -147.9737562000712,1.1104086384321263 -184.95280007561527,-0.12127911138744452 -221.9052922264554,-1.986772210966457 -217.64212231034924,-43.333734874503975 -181.08641138830228,-37.620002325092074 -144.6340322861284,-31.28038100723156 -108.29570035220148,-24.316734482441497 -72.08209741019353,-16.731109747387304 -36.00386861910241,-8.525736632156013 -71.93053239645438,-17.371163161814106 -107.70026555312155,-26.831233487308445 -143.30255340771822,-36.9031667764499 -178.72693050019296,-47.58400233705192 -213.9629836682005,-58.870600487239756 -199.23120688599045,-97.7385910716872 -165.36626784408608,-82.83447605768612 -131.7618294434827,-67.3519549308628 -98.42776986698337,-51.295578851159604 -65.37388781826306,-34.670067665882954 -32.6098996414942,-17.480308522281597 -65.0631342358276,-35.24978530207551 -97.20695054756375,-53.57304411648509 -129.03189975063626,-72.44469875735672 -160.52862675146562,-91.85920181300295 -191.68787293893365,-111.81084629889025 -167.47433121358688,-145.5962031321168 -138.56868481882694,-122.50009204900212 -110.06325765267987,-98.91180337139852 -81.96642901960159,-74.8382709877639 -54.28645811458599,-50.28657142622717 -27.031481595336405,-25.26392177440912 -53.83733250631889,-50.76711956607151 -80.202004567528,-76.72614126888945 -106.11774775954514,-103.13335610627612 -131.57694402770517,-129.98100155316357 -156.57210952146002,-157.26118561783375 -124.49880259077753,-183.70071892997433 -102.48875999520592,-153.95975785600103 -80.99184561078349,-123.84581735311616 -60.01437855665351,-93.36774955583999 -39.5625252579716,-62.53451363562449 -19.64229763325682,-31.35517316726265 -39.00511333488167,-62.88370165762173 -57.82454299868564,-94.73956152345501 -76.09505456475908,-126.91338858484848 -93.81127733025004,-159.39572519393448 -110.96800352810824,-192.17702301501234 -73.18343556475801,-209.49961990625602 -59.54339005308924,-175.10607546689826 -46.49500866265819,-140.48373464839884 -34.042127026577674,-105.6427748507664 -22.188405728004852,-70.59343773808715 -10.937329224096505,-35.34602622793967 -21.560047008752957,-70.78787448011208 -31.57357153004414,-106.40663452764844 -40.97495926531566,-142.19183606841895 -49.76144663240176,-178.1329598740334 -57.930450801993814,-214.21944088201843 -16.96570792401048,-221.26470739041054 -12.6093692911384,-184.5225102000108 -8.883596708723566,-147.71102613149486 -5.789485385149533,-110.84107609383136 -3.327944848999852,-73.9234981823355 -1.4996986816986908,-36.96914449276025 -2.670731386431143,-73.950158852387 -3.2075718129922386,-110.9458145840926 -3.110062154612365,-147.94523664078156 -2.378231074714357,-184.93754886822907 -1.0122936984881008,-221.91187720217863 40.388506651052275,-218.20786995987274 35.16931905046902,-181.57828053475922 29.322903386207628,-145.04355507331422 22.850978239664258,-108.6144331300116 15.755446063691354,-72.30162321667376 8.038392623361919,-36.11579965465467 16.39748931543934,-72.15872188849933 25.373294473298685,-108.05303428518158 34.96316961677567,-143.78818554266198 45.16429575694412,-179.35367114506641 55.97367422477085,-214.73903645053926 95.0372042909529,-200.53387689486908 80.59210973259502,-166.47061246142744 65.56514141062127,-132.66000815282518 49.960716573083246,-99.11200275530415 33.78342221409301,-65.83645786292026 17.038013725453997,-32.84315497868186 34.367286512317335,-65.53356711039031 52.25447231873024,-97.92207316715884 70.69431312225186,-129.99915239521917 89.6813884449042,-161.75537558618433 109.21011694654729,-193.18140784881 143.31961639568542,-169.4266612375998 120.6162527349287,-140.21152784495717 97.41534776188283,-111.38992571922219 73.72372149174277,-82.97032710596793 49.548338189538185,-54.961086079942945 24.896304322954624,-27.37043608935204 50.03491204243922,-54.51849573619131 75.63526424948222,-81.23157694255572 101.68983560008294,-107.50182727251901 128.1909672303858,-133.32152446237444 155.13086900803975,-158.68307869063173 182.00143463222736,-126.97001131660144 152.56063885866428,-104.56005181458937 122.739963172346,-82.65813312526211 92.54817350121989,-61.270693420684154 61.99414486393563,-40.4040196394011 31.086858760991458,-20.064245638364834 62.350834003777635,-39.85137763572429 93.94945418649337,-59.099596857536476 125.87343074604007,-77.80324519918346 158.11337947928078,-95.9568246352197 190.65982330157155,-113.55499883554366 208.4914685110165,-76.0079833967896 174.28539998766104,-61.90438042315266 139.8425600800452,-48.38929552660747 105.1730734230402,-35.46670152995857 70.28713127539567,-23.14039709052206 35.19498852397128,-11.414005583492745 70.49004206043624,-22.514723421567258 105.9702240288506,-33.00869445977178 141.62510486276312,-42.89283394593744 177.4442036421685,-52.16423639074945 213.41699117442417,-60.82017642183033 221.0152222357292,-19.954386034605754 184.3352530718505,-15.10190184613274 147.57748172750715,-10.87898976328647 110.75271332255977,-7.286891130945964 73.87177267097006,-4.326661863407804 36.945501098795916,-1.9991721339953497 "/> 

<polyline class="st1" points="35.760300585598095,9.495664415413323 36.999550546763054,0.0 "/> 

<polyline class="st1" points="71.60359233874004,18.673091994077208 73.99763942417397,0.32887700083357657 "/> 

<polyline class="st1" points="107.59895813894924,27.234656195296765 110.98465199612967,1.2920185607637522 "/> 

<polyline class="st1" points="143.7358169790626,35.17784030698625 147.94971575623205,2.8891415597966574 "/> 

<polyline class="st1" points="180.00354625937206,42.50030939279718 184.88196465003952,5.119776516111023 "/> 

<polyline class="st1" points="35.760300585598095,9.495664415413323 0.0,0.0 "/> 

<polyline class="st1" points="32.12556470868183,18.35523992789991 35.760300585598095,9.495664415413323 "/> 

<polyline class="st1" points="64.41301406772294,36.42420100898673 71.43478457822867,19.308815414048727 "/> 

<polyline class="st1" points="97.0055007968284,53.936954917940014 106.93578388465706,29.732144484333602 "/> 

<polyline class="st1" points="129.89344418115127,70.88835369833717 142.25286281907736,40.76258763963788 "/> 

<polyline class="st1" points="163.06717665497035,87.27341440673715 177.37563975994257,52.396902429289284 "/> 

<polyline class="st1" points="32.12556470868183,18.35523992789991 0.0,0.0 "/> 

<polyline class="st1" points="26.33882405174429,25.985247511496425 32.12556470868183,18.35523992789991 "/> 

<polyline class="st1" points="52.90758202133059,51.735351212569526 64.08670652247648,36.995308453014886 "/> 

<polyline class="st1" points="79.91390705473584,77.02616276246928 95.72357653971369,56.180594381947785 "/> 

<polyline class="st1" points="107.34986051563074,101.85024780812778 127.02687495357591,75.90545810961814 "/> 

<polyline class="st1" points="135.207377476388,126.20030919292913 157.98740001218803,96.16410141951243 "/> 

<polyline class="st1" points="26.33882405174429,25.985247511496425 0.0,0.0 "/> 

<polyline class="st1" points="18.787716736244167,31.87457357363586 26.33882405174429,25.985247511496425 "/> 

<polyline class="st1" points="37.85801400591351,63.580890021765185 52.445633152157285,52.20358573604963 "/> 

<polyline class="st1" points="57.46909659781021,94.95559607993059 78.09910543716155,78.86565805582612 "/> 

<polyline class="st1" points="77.61519974192097,125.98946900564397 103.29169994785947,105.96362702920175 "/> 

<polyline class="st1" points="98.29040139642359,156.67338624592026 128.01601120254384,133.48952708067986 "/> 

<polyline class="st1" points="18.787716736244167,31.87457357363586 0.0,0.0 "/> 

<polyline class="st1" points="9.978071038968714,35.62870807373976 18.787716736244167,31.87457357363586 "/> 

<polyline class="st1" points="20.272439920513754,71.16731679711484 37.291368519423216,63.91488585908853 "/> 

<polyline class="st1" points="31.174586635102205,106.52421057578356 55.242986276739266,96.26772438305252 "/> 

<polyline class="st1" points="42.681306445404196,141.6889960844381 72.63729304567632,128.92357887639852 "/> 

<polyline class="st1" points="54.78921689698352,176.65133646890044 89.46917568790582,161.8728499970271 "/> 

<polyline class="st1" points="9.978071038968714,35.62870807373976 0.0,0.0 "/> 

<polyline class="st1" points="0.5000213224652494,36.99617168491295 9.978071038968714,35.62870807373976 "/> 

<polyline class="st1" points="1.3288698587864722,73.98643730664529 19.639055866831434,71.34470046955988 "/> 

<polyline class="st1" points="2.7917753440817705,110.95705602210049 28.686288726233006,107.22107595887371 "/> 

<polyline class="st1" points="4.888307750399576,147.89716014393176 37.1171101405002,143.24728851228 "/> 

<polyline class="st1" points="7.617850792173357,184.7958909547005 44.92904183000465,179.41274805506737 "/> 

<polyline class="st1" points="0.5000213224652494,36.99617168491295 0.0,0.0 "/> 

<polyline class="st1" points="-9.011523471426443,35.885361714582245 0.5000213224652494,36.99617168491295 "/> 

<polyline class="st1" points="-17.703717604317784,71.84940628438285 0.6711759243328501,73.99532636126649 "/> 

<polyline class="st1" points="-25.778049434162618,107.95718807950324 0.2079742012167003,110.9919773560008 "/> 

<polyline class="st1" points="-33.23214547312363,144.19809304756967 -0.8894476865569274,147.97524932945808 "/> 

<polyline class="st1" points="-40.06381455459272,180.5614680040251 -2.6207671466600004,184.93427087480669 "/> 

<polyline class="st1" points="-9.011523471426443,35.885361714582245 0.0,0.0 "/> 

<polyline class="st1" points="-17.919410656132428,32.370688321371276 -9.011523471426443,35.885361714582245 "/> 

<polyline class="st1" points="-35.55038085864564,64.89937766448139 -18.34166427989178,71.6892052674284 "/> 

<polyline class="st1" points="-52.62107233032364,97.72555979614656 -28.28427195361523,107.32782607840942 "/> 

<polyline class="st1" points="-69.12646706107756,130.83958530565653 -38.83642381628339,142.79074800723058 "/> 

<polyline class="st1" points="-85.06171321245544,164.23172016938554 -49.99501801320025,178.06754656111025 "/> 

<polyline class="st1" points="-17.919410656132428,32.370688321371276 0.0,0.0 "/> 

<polyline class="st1" points="-25.626924937300323,26.687589979622548 -17.919410656132428,32.370688321371276 "/> 

<polyline class="st1" points="-51.015620152550255,53.601915085959874 -36.125845951206465,64.58081800923121 "/> 

<polyline class="st1" points="-75.93915176754219,80.94756030597564 -54.8818311513288,96.47407372004358 "/> 

<polyline class="st1" points="-100.3901933928734,108.71648725857494 -74.18185284638835,128.0410802812097 "/> 

<polyline class="st1" points="-124.36155752979687,136.90053313700574 -94.0202377041864,159.27255842260357 "/> 

<polyline class="st1" points="-25.626924937300323,26.687589979622548 0.0,0.0 "/> 

<polyline class="st1" points="-31.61776075810756,19.216762092130622 -25.626924937300323,26.687589979622548 "/> 

<polyline class="st1" points="-63.06346089114268,38.71380504242721 -51.49005481039191,53.1463362430053 "/> 

<polyline class="st1" points="-94.17027260725638,58.74710246249078 -77.8030047650074,79.15778382572115 "/> 

<polyline class="st1" points="-124.92905191276307,79.31076547027246 -104.55803998568479,104.71428654034915 "/> 

<polyline class="st1" points="-155.33075711974186,100.39874928026317 -131.74729570391779,129.808331932653 "/> 

<polyline class="st1" points="-31.61776075810756,19.216762092130622 0.0,0.0 "/> 

<polyline class="st1" points="-35.49060821351095,10.458655233706839 -31.61776075810756,19.216762092130622 "/> 

<polyline class="st1" points="-70.88685077531176,21.23236179963096 -63.40508401840766,38.151725007532846 "/> 

<polyline class="st1" points="-106.0931813229373,32.611334953382695 -95.51236530481137,56.53892786871387 "/> 

<polyline class="st1" points="-141.09925078985003,44.59222979225654 -127.9301665308949,74.37296567086665 "/> 

<polyline class="st1" points="-175.89476897719942,57.171524475835284 -160.6489583314369,91.64859601465606 "/> 

<polyline class="st1" points="-35.49060821351095,10.458655233706839 0.0,0.0 "/> 

<polyline class="st1" points="-36.98603571648943,0.999951319336235 -35.49060821351095,10.458655233706839 "/> 

<polyline class="st1" points="-73.96172205467326,2.328620007430576 -71.07277796173345,20.60143279565471 "/> 

<polyline class="st1" points="-110.90919447413577,4.291022228059674 -106.82361055696268,30.132681895870743 "/> 

<polyline class="st1" points="-147.8175920914928,6.886581123856068 -142.7325968737219,39.04960077883004 "/> 

<polyline class="st1" points="-184.67606550958206,10.11453371806833 -178.78918129650356,47.349568274265785 "/> 

<polyline class="st1" points="-36.98603571648943,0.999951319336235 0.0,0.0 "/> 

<polyline class="st1" points="-36.00386861910241,-8.525736632156013 -36.98603571648943,0.999951319336235 "/> 

<polyline class="st1" points="-72.08209741019353,-16.731109747387304 -73.97949854038849,1.6711062636466387 "/> 

<polyline class="st1" points="-108.29570035220148,-24.316734482441497 -110.97903076378523,1.7079289780819948 "/> 

<polyline class="st1" points="-144.6340322861284,-31.28038100723156 -147.9737562000712,1.1104086384321263 "/> 

<polyline class="st1" points="-181.08641138830228,-37.620002325092074 -184.95280007561527,-0.12127911138744452 "/> 

<polyline class="st1" points="-36.00386861910241,-8.525736632156013 0.0,0.0 "/> 

<polyline class="st1" points="-32.6098996414942,-17.480308522281597 -36.00386861910241,-8.525736632156013 "/> 

<polyline class="st1" points="-65.37388781826306,-34.670067665882954 -71.93053239645438,-17.371163161814106 "/> 

<polyline class="st1" points="-98.42776986698337,-51.295578851159604 -107.70026555312155,-26.831233487308445 "/> 

<polyline class="st1" points="-131.7618294434827,-67.3519549308628 -143.30255340771822,-36.9031667764499 "/> 

<polyline class="st1" points="-165.36626784408608,-82.83447605768612 -178.72693050019296,-47.58400233705192 "/> 

<polyline class="st1" points="-32.6098996414942,-17.480308522281597 0.0,0.0 "/> 

<polyline class="st1" points="-27.031481595336405,-25.26392177440912 -32.6098996414942,-17.480308522281597 "/> 

<polyline class="st1" points="-54.28645811458599,-50.28657142622717 -65.0631342358276,-35.24978530207551 "/> 

<polyline class="st1" points="-81.96642901960159,-74.8382709877639 -97.20695054756375,-53.57304411648509 "/> 

<polyline class="st1" points="-110.06325765267987,-98.91180337139852 -129.03189975063626,-72.44469875735672 "/> 

<polyline class="st1" points="-138.56868481882694,-122.50009204900212 -160.52862675146562,-91.85920181300295 "/> 

<polyline class="st1" points="-27.031481595336405,-25.26392177440912 0.0,0.0 "/> 

<polyline class="st1" points="-19.64229763325682,-31.35517316726265 -27.031481595336405,-25.26392177440912 "/> 

<polyline class="st1" points="-39.5625252579716,-62.53451363562449 -53.83733250631889,-50.76711956607151 "/> 

<polyline class="st1" points="-60.01437855665351,-93.36774955583999 -80.202004567528,-76.72614126888945 "/> 

<polyline class="st1" points="-80.99184561078349,-123.84581735311616 -106.11774775954514,-103.13335610627612 "/> 

<polyline class="st1" points="-102.48875999520592,-153.95975785600103 -131.57694402770517,-129.98100155316357 "/> 

<polyline class="st1" points="-19.64229763325682,-31.35517316726265 0.0,0.0 "/> 

<polyline class="st1" points="-10.937329224096505,-35.34602622793967 -19.64229763325682,-31.35517316726265 "/> 

<polyline class="st1" points="-22.188405728004852,-70.59343773808715 -39.00511333488167,-62.88370165762173 "/> 

<polyline class="st1" points="-34.042127026577674,-105.6427748507664 -57.82454299868564,-94.73956152345501 "/> 

<polyline class="st1" points="-46.49500866265819,-140.48373464839884 -76.09505456475908,-126.91338858484848 "/> 

<polyline class="st1" points="-59.54339005308924,-175.10607546689826 -93.81127733025004,-159.39572519393448 "/> 

<polyline class="st1" points="-10.937329224096505,-35.34602622793967 0.0,0.0 "/> 

<polyline class="st1" points="-1.4996986816986908,-36.96914449276025 -10.937329224096505,-35.34602622793967 "/> 

<polyline class="st1" points="-3.327944848999852,-73.9234981823355 -21.560047008752957,-70.78787448011208 "/> 

<polyline class="st1" points="-5.789485385149533,-110.84107609383136 -31.57357153004414,-106.40663452764844 "/> 

<polyline class="st1" points="-8.883596708723566,-147.71102613149486 -40.97495926531566,-142.19183606841895 "/> 

<polyline class="st1" points="-12.6093692911384,-184.5225102000108 -49.76144663240176,-178.1329598740334 "/> 

<polyline class="st1" points="-1.4996986816986908,-36.96914449276025 0.0,0.0 "/> 

<polyline class="st1" points="8.038392623361919,-36.11579965465467 -1.4996986816986908,-36.96914449276025 "/> 

<polyline class="st1" points="15.755446063691354,-72.30162321667376 -2.670731386431143,-73.950158852387 "/> 

<polyline class="st1" points="22.850978239664258,-108.6144331300116 -3.2075718129922386,-110.9458145840926 "/> 

<polyline class="st1" points="29.322903386207628,-145.04355507331422 -3.110062154612365,-147.94523664078156 "/> 

<polyline class="st1" points="35.16931905046902,-181.57828053475922 -2.378231074714357,-184.93754886822907 "/> 

<polyline class="st1" points="8.038392623361919,-36.11579965465467 0.0,0.0 "/> 

<polyline class="st1" points="17.038013725453997,-32.84315497868186 8.038392623361919,-36.11579965465467 "/> 

<polyline class="st1" points="33.78342221409301,-65.83645786292026 16.39748931543934,-72.15872188849933 "/> 

<polyline class="st1" points="49.960716573083246,-99.11200275530415 25.373294473298685,-108.05303428518158 "/> 

<polyline class="st1" points="65.56514141062127,-132.66000815282518 34.96316961677567,-143.78818554266198 "/> 

<polyline class="st1" points="80.59210973259502,-166.47061246142744 45.16429575694412,-179.35367114506641 "/> 

<polyline class="st1" points="17.038013725453997,-32.84315497868186 0.0,0.0 "/> 

<polyline class="st1" points="24.896304322954624,-27.37043608935204 17.038013725453997,-32.84315497868186 "/> 

<polyline class="st1" points="49.548338189538185,-54.961086079942945 34.367286512317335,-65.53356711039031 "/> 

<polyline class="st1" points="73.72372149174277,-82.97032710596793 52.25447231873024,-97.92207316715884 "/> 

<polyline class="st1" points="97.41534776188283,-111.38992571922219 70.69431312225186,-129.99915239521917 "/> 

<polyline class="st1" points="120.6162527349287,-140.21152784495717 89.6813884449042,-161.75537558618433 "/> 

<polyline class="st1" points="24.896304322954624,-27.37043608935204 0.0,0.0 "/> 

<polyline class="st1" points="31.086858760991458,-20.064245638364834 24.896304322954624,-27.37043608935204 "/> 

<polyline class="st1" points="61.99414486393563,-40.4040196394011 50.03491204243922,-54.51849573619131 "/> 

<polyline class="st1" points="92.54817350121989,-61.270693420684154 75.63526424948222,-81.23157694255572 "/> 

<polyline class="st1" points="122.739963172346,-82.65813312526211 101.68983560008294,-107.50182727251901 "/> 

<polyline class="st1" points="152.56063885866428,-104.56005181458937 128.1909672303858,-133.32152446237444 "/> 

<polyline class="st1" points="31.086858760991458,-20.064245638364834 0.0,0.0 "/> 

<polyline class="st1" points="35.19498852397128,-11.414005583492745 31.086858760991458,-20.064245638364834 "/> 

<polyline class="st1" points="70.28713127539567,-23.14039709052206 62.350834003777635,-39.85137763572429 "/> 

<polyline class="st1" points="105.1730734230402,-35.46670152995857 93.94945418649337,-59.099596857536476 "/> 

<polyline class="st1" points="139.8425600800452,-48.38929552660747 125.87343074604007,-77.80324519918346 "/> 

<polyline class="st1" points="174.28539998766104,-61.90438042315266 158.11337947928078,-95.9568246352197 "/> 

<polyline class="st1" points="35.19498852397128,-11.414005583492745 0.0,0.0 "/> 

<polyline class="st1" points="36.945501098795916,-1.9991721339953497 35.19498852397128,-11.414005583492745 "/> 

<polyline class="st1" points="73.87177267097006,-4.326661863407804 70.49004206043624,-22.514723421567258 "/> 

<polyline class="st1" points="110.75271332255977,-7.286891130945964 105.9702240288506,-33.00869445977178 "/> 

<polyline class="st1" points="147.57748172750715,-10.87898976328647 141.62510486276312,-42.89283394593744 "/> 

<polyline class="st1" points="184.3352530718505,-15.10190184613274 177.4442036421685,-52.16423639074945 "/> 

</svg>