<?xml version="1.0" encoding="utf-8"?>
<!-- Generator: Adobe Illustrator 24.2.0, SVG Export Plug-In . SVG Version: 6.00 Build 0)  -->
<svg version="1.1" id="Layer_1" xmlns="http://www.w3.org/2000/svg" xmlns:xlink="http://www.w3.org/1999/xlink" x="0px" y="0px"
	 viewBox="-100 -200 500 500" style="enable-background:new 0 0 85.04 85.04;" xml:space="preserve">
<style type="text/css">
	.st0{fill:none;stroke:#000000;stroke-miterlimit:10;}
	.st1{fill:none;stroke:#FF0000;stroke-miterlimit:10;}
</style>

    <polygon class="st0" points="0.0,0.0 31.737961726809548,0.0 63.47542363548427,0.17811840962809297 95.20904117440755,0.7032207480050594 126.93502090071934,1.5752442442944554 158.64957028458525,2.7940846566366284 190.34889816255622,4.359596284609808 222.0292151907651,6.271591986647165 217.9191599180298,42.98307812260757 186.60035979178386,37.84197189683437 155.33964074997985,32.358755727302096 124.14073970509878,26.534085078746312 93.00738617988621,20.368656233437896 61.94330186152428,13.863206207949384 30.952200156740638,7.018512665051806 61.86452387794648,14.210623393329124 92.69636660221549,21.740277356053294 123.44404268502572,29.606574456913886 154.10387654315204,37.80857435721376 184.67220309404607,46.34529658827733 215.1453681939609,55.21572066865601 203.0187140890764,90.10941678810201 173.61219898101334,78.16977341940438 144.33798097382345,65.90933400476892 115.1995595132647,53.329564159526186 86.20041781194935,40.43196767182896 57.34402243295982,27.218086322889143 28.63382287545525,13.689499702672968 57.19036720225326,27.53948131580328 85.59377896704855,41.70085182475884 113.84066282043202,56.17191837653356 141.92764212437174,70.95095109699567 169.85135935585703,86.03618329767721 197.6084765082573,101.42581168696445 178.06568171350486,132.77393667500718 152.0275318647227,114.62695436320688 126.18934436740861,96.19637430109083 100.55420792356,77.48439968381183 75.12518696241158,58.493267344483 49.905321274112815,39.2252474867862 24.897625646350896,19.682643413591528 49.684397122002295,39.50470623223535 74.25296691607313,59.59658501064472 98.6003980969151,79.95587796169272 122.72378016783301,100.5801513315098 146.62022941500618,121.46693969041513 170.2868892522082,142.6137462276348 144.29562631402536,168.8640799309231 122.9151354531498,145.40831677726632 101.7923709453158,121.7201966720529 80.92985780993244,97.80255129780282 60.33008995590878,73.65823977453174 39.99552988353137,49.29014831797115 19.928608390096592,24.701189894549607 39.71827599446247,49.5138332579871 59.23547717744625,74.54135955515366 78.47787884899336,99.78077699065065 97.4431807686367,125.2290684395712 116.1291158204678,150.88319180816785 134.53345028414833,176.74008039750527 103.38069129924213,196.5928226837512 87.71652653365042,168.98970407789758 72.35509065641722,141.21697460522816 57.29821997659796,113.27795422326723 42.54771439546472,85.17598276798701 28.105337191345548,56.91441955456292 13.97281480884198,28.4966429758004 27.785481948574763,57.0712548027242 41.284909256207904,85.79517648724276 54.469483007555304,114.66497436612838 67.33762711608671,143.6771973380845 79.8878033213334,172.8283772762909 92.11851137277205,202.1150294429845 57.346802836261666,214.58716054026385 48.17458415100359,184.20347052469415 39.33510709715459,153.72131410512787 30.82942834753412,123.14433512451758 22.65856467264695,92.47618876092338 14.82349281913813,61.72054109057215 7.325149393032635,30.881068649614143 14.476874036064922,61.80276086078965 21.290095683875474,92.80079669131015 27.763999882613184,123.87147062989722 33.897812740501315,155.0110684820988 39.69080102034872,186.21586781428448 45.14227222720102,217.48213839862643 8.473354969755313,221.95609367582267 6.247249964954726,190.29629786030878 4.367423444386553,158.6140557233483 2.8341001228814946,126.9131545663755 1.6474632942099348,95.19738392132784 0.8076548091709057,63.470535097644074 0.3147750586353242,31.736400729050686 0.4514355110422894,63.474068231455064 0.24109097252303968,95.21133291742859 -0.31623341229507673,126.94440090813058 -1.2204710207459044,158.66947882639414 -2.4715137600884205,190.38277425018703 -4.069212080428457,222.080496165959 -40.819655864410805,218.33474519504475 -35.98942033935715,186.966496290381 -30.816515652405045,155.6529325891327 -25.301560173594552,124.39779732084169 -19.44521316178449,93.20482673050371 -13.248174685844445,62.07774963193653 -6.711185540968356,31.02028696203704 -13.596356098844126,62.00242118422044 -20.819851494803125,92.90742609988072 -28.380808230790013,123.73160731867326 -36.27832246855475,154.471280111934 -44.51145013769741,185.12276985315248 -53.07920704852295,215.68241245723786 -88.09145833253379,203.90242821781575 -76.44405412379791,174.3789428244759 -64.4745575330164,144.98456639061197 -52.18439939615753,115.72281272574371 -39.57504888113377,86.59717978563927 -26.64801331217695,57.61114925416855 -13.40483798965253,28.768186127102215 -26.970916440295348,57.46068915565362 -40.849887230312355,86.0031554888611 -55.0400912648152,114.39217315470515 -69.53983224403255,142.62434852445017 -84.3473768660858,170.69630671831914 -99.46095503418888,198.60469200892788 -131.00136237725792,179.37376708865875 -113.11351729723444,153.15691729762722 -94.94010520163513,127.13720731892165 -76.48329854370361,101.31774755377234 -57.745303653725145,75.70162446546001 -38.728360475281306,50.29190021035907 -19.43474229748673,25.09161227188696 -39.00999658735071,50.073758577991015 -58.85721767658342,74.84038995182837 -78.97403302448598,99.38854578543058 -99.35803786300914,123.71529158743822 -120.00679548421928,147.81771933389024 -140.91783753158364,171.69294781585015 -167.4246598107094,145.96331234780288 -144.18210063392874,124.35124031649875 -120.70463982046319,102.9945774609725 -96.99508387057956,81.89587676088748 -73.05626702924303,61.05766035906055 -48.89105094731051,40.48241925996437 -24.502324339448503,20.172613031952444 -49.11747467182202,40.20739750014871 -73.95019967354156,59.971860143018645 -98.99753083579346,79.46363831282429 -124.2564739957017,98.6804019585831 -149.72400969425024,117.61985390460254 -175.39709353723055,136.27973012508517 -195.5578304431074,105.32540157368918 -168.11142564363038,89.38824128222967 -140.49241587386564,73.7521128000873 -112.70410271565387,58.418885273125284 -84.74980798939637,43.390391638367404 -56.63287335696339,28.66842840488807 -28.356659922231426,14.254755439057597 -56.79287319503094,28.350144375737813 -85.38149567424323,42.13378973222845 -114.11910987033403,55.604043808862144 -143.00228048327025,68.75929636882657 -172.02755481317578,81.59797483065239 -201.19146317306885,94.11854445620015 -214.00784440584158,59.47224392133808 -183.71661825331853,49.999132882765124 -153.32363042971156,40.85777052661153 -122.83251411874156,32.04924961312494 -92.24691423442846,23.574623114621783 -61.570486985376746,15.434904089614514 -30.80689943771201,7.631065561710737 -61.65614045445072,15.089117804997327 -92.58507858654238,22.20944087306625 -123.59001658266091,28.99118360110245 -154.66724810644178,35.43353529825103 -185.81305817953762,41.53572584452754 -217.02372362570827,47.29702578287815 -221.86113881393905,10.674284447030189 -190.22497851762407,8.134289116661769 -158.56293863617475,5.940332618018999 -126.87880405604369,4.092677217091744 -95.17636230488857,2.591543782968767 -63.45940309880949,1.4371117614349078 -31.731717889326116,0.6295191535203379 -63.466469018884645,1.0809450249655175 -95.20425892495713,1.1853789774470336 -126.94129366591793,0.9428085269097544 -158.67377939041413,0.3532626702728052 -190.3979227908828,-0.5831881180364604 -222.10993155700447,-1.8664318945073006 -218.728853349435,-38.65221826383821 -187.31424129401043,-34.13332857945761 -155.95091318170813,-29.271244222672834 -124.64261819091726,-24.066546408000736 -93.39309892135736,-18.519857306038173 -62.20609094668632,-12.631839969087522 -31.08532236794971,-6.403198251895175 -62.134219444730476,-12.980751359845083 -93.10934649244702,-19.897377629222806 -124.00700073834128,-27.152250245168503 -154.82348867076922,-34.74450195878788 -185.55512648072352,-42.67322519082296 -216.1982405021975,-50.937472140144706 -204.76608490013083,-86.06483450833126 -175.12853338372415,-74.71081518983578 -145.61688998522342,-63.03343883672664 -116.23468253226429,-51.03410136486158 -86.98542337968446,-38.7142371773938 -57.872608989655426,-26.07531899330285 -28.899719513715148,-13.118857671345474 -57.725358823770705,-26.39969849333435 -86.40407206393043,-39.99490431969514 -114.93243097519289,-53.90284997685883 -143.30702527194268,-68.12187290627588 -171.5244630496163,-82.65027336315836 -199.58137119017167,-97.48631461966835 -180.664207849402,-129.2159017552488 -154.27123701164825,-111.58895349612267 -128.07256405485595,-93.67449704677811 -102.07132077352479,-75.47467390484994 -76.27061536137279,-56.99165968076364 -50.67353203978142,-38.22766383766201 -25.283130689107704,-19.18492942728558 -50.45819438528239,-38.51144961240876 -75.42045109824785,-58.11206068371055 -100.16691683494429,-77.98441958030196 -124.69463339800757,-98.12615075650587 -149.00066873939244,-118.5348464658297 -173.08211731087073,-139.20806704878862 -147.61664028225368,-165.9687704842503 -125.7751130138935,-142.9417016052569 -104.18665261999229,-119.67720951122261 -82.85383978933655,-96.17807524409179 -61.779224650553175,-72.44710789498043 -40.965326467266124,-48.48714426837645 -20.414633336943545,-24.301048543027548 -40.69256389000691,-48.71628450456529 -60.70234380478041,-73.35176546871038 -80.4415811082513,-98.20454650524006 -99.9079161681237,-123.2716567078385 -119.09902197488928,-148.550099549239 -138.01260441999887,-174.03685323943017 -107.25975121330887,-194.50360159630236 -91.0511631004052,-167.21661044742953 -75.14188010592102,-139.75403720357923 -59.53380402866351,-112.11916474613926 -44.228800661106035,-84.31529655317948 -29.228699566350645,-56.345756304552864 -14.535293859422117,-28.213887484582372 -28.912018059741172,-56.50890499368434 -42.97852559733097,-84.9594160658489 -56.733134959123554,-113.56201972140644 -70.17420191642009,-142.31329679951034 -83.30011972144214,-171.2098103668636 -96.10931929940296,-200.24810612857107 -61.59183484878465,-213.40747677678507 -51.8187633065996,-183.21169417053758 -42.37641486443472,-152.9108646361969 -33.265918262473434,-122.50861034086407 -24.48836257126511,-92.0085655759762 -16.04479706153728,-61.41437632286214 -7.9362310787658945,-30.729699816901213 -15.699877289634497,-61.503455065243784 -23.126601366987252,-92.3602530853122 -30.215515518772374,-123.29640524942346 -36.96577233480281,-154.3082134438849 -43.376564888055775,-185.39197051106683 -49.44712683113317,-216.5439606925575 -12.874163917739239,-221.74435994562117 -10.020528115719415,-190.13494715003358 -7.512657453817567,-158.4962240513433 -5.350851723384192,-126.83197274871029 -3.53536934709998,-95.14597839294122 -2.066427348083927,-63.44202873401146 -0.9442013239505762,-31.72391366827678 -1.7103482086350184,-63.45262674529133 -2.1295503791724286,-95.1878198928467 -2.2017577240531736,-126.92569947973422 -1.9269616115970578,-158.66247155360793 -1.3051948909852413,-190.3943422945139 -0.33653188833347514,-222.1175184684049 36.480978527097946,-219.1014456136231 32.27387919691843,-187.64356059573882 27.72309344315603,-156.2335532159915 22.82916526763157,-124.87517823281934 17.592679691478345,-93.57218423251376 12.014262685208502,-62.32831318111257 6.094581093884173,-31.147299977084657 12.363869732055559,-62.25990569476316 18.972946501096537,-93.3021079174366 25.921021350674817,-124.27019585416727 33.207263706561214,-155.16046757365396 40.83080256991642,-185.96923044676097 48.79072662141052,-216.69280158793657 84.0297446701521,-205.6095991799582 72.97022711253058,-175.86089692313553 61.58611967566824,-146.23488955733606 49.87878321799917,-116.73511858128674 37.84961723681806,-87.36511040339168 25.50005970098397,-58.12837592018461 12.83158687902499,-29.02841009663571 25.825883664409893,-57.98435017161447 39.13598719575029,-86.79648925494928 52.76030638066136,-115.46138313788717 66.69721256535766,-143.97560521339548 80.94503972934226,-172.33574688577872 95.50208468456358,-200.5384179781433 127.41773044092834,-181.93687705783273 110.05341292795698,-155.37038139353518 92.39967433169119,-128.99532256616675 74.45862498350263,-102.81485345542904 56.232409559946674,-76.83210367973058 37.72320682638727,-51.050179222071826 18.93322937654665,-25.472162058755423 38.00911434841076,-50.83766672774701 57.36118733152824,-75.99309329595539 76.98713497530184,-100.93543467875831 96.88461119010391,-125.66170926377855 117.05123742772787,-150.16896126730603 137.48460296572094,-174.4542610876333 164.4965551642698,-149.25544748303946 141.68724170665433,-127.18661348201746 118.63800681045655,-105.3684791604874 95.35160578573334,-83.80365266250234 71.8308222934271,-62.49471185164827 48.07846801260641,-41.444204002885954 24.097382304357016,-20.654645498049334 48.31030222043687,-41.1737274392554 72.74611580735487,-61.42685630661373 97.40190200316562,-81.41161103713003 122.2747134503552,-101.12560264930708 147.36157684816817,-120.5664745287238 172.6594933080374,-139.73190270974567 193.43023984557638,-109.18354994025799 166.3053465103549,-92.70512841010893 139.00191122710189,-76.52425586547633 111.52319785382235,-60.64286657103562 83.87249120129842,-45.06285899117554 56.053096640422666,-29.786095563055632 28.068339707073036,-14.814402473970233 56.2193781320299,-29.471047730270442 84.52897918112944,-43.819033756652374 112.99375871911383,-57.85664539205429 141.61031406065848,-71.58220457763011 170.3752243771291,-84.99407055734474 199.28505110550904,-98.0906400741105 212.78611670997591,-63.70536711896827 182.68874794465498,-53.63329642934804 152.48305732747355,-43.890890724823734 122.17265565260809,-34.47931461448278 91.76116623141525,-25.39969315997792 61.25222445930084,-16.653111741037243 30.649477381143594,-8.240615925717893 61.344719712504485,-16.30909241087022 92.12634230322398,-24.041486946519314 122.99066551210467,-31.43687520070684 153.9339998119013,-38.49437312727146 184.95264623036678,-45.21313707152791 216.04289679242927,-51.59236387111756 221.605768558157,-15.072776984436821 190.02621261373068,-11.90578141682542 158.4139185314252,-9.084243285545881 126.77266525107098,-6.608499877819494 95.1062351742864,-4.47884714449841 63.41841371232917,-2.6955396646876384 31.71298883358723,-1.2587906153129538 "/> 

<polyline class="st1" points="30.952200156740638,7.018512665051806 31.737961726809548,0.0 "/> 

<polyline class="st1" points="61.94330186152428,13.863206207949384 63.47542363548427,0.17811840962809297 "/> 

<polyline class="st1" points="93.00738617988621,20.368656233437896 95.20904117440755,0.7032207480050594 "/> 

<polyline class="st1" points="124.14073970509878,26.534085078746312 126.93502090071934,1.5752442442944554 "/> 

<polyline class="st1" points="155.33964074997985,32.358755727302096 158.64957028458525,2.7940846566366284 "/> 

<polyline class="st1" points="186.60035979178386,37.84197189683437 190.34889816255622,4.359596284609808 "/> 

<polyline class="st1" points="30.952200156740638,7.018512665051806 0.0,0.0 "/> 

<polyline class="st1" points="28.63382287545525,13.689499702672968 30.952200156740638,7.018512665051806 "/> 

<polyline class="st1" points="57.34402243295982,27.218086322889143 61.86452387794648,14.210623393329124 "/> 

<polyline class="st1" points="86.20041781194935,40.43196767182896 92.69636660221549,21.740277356053294 "/> 

<polyline class="st1" points="115.1995595132647,53.329564159526186 123.44404268502572,29.606574456913886 "/> 

<polyline class="st1" points="144.33798097382345,65.90933400476892 154.10387654315204,37.80857435721376 "/> 

<polyline class="st1" points="173.61219898101334,78.16977341940438 184.67220309404607,46.34529658827733 "/> 

<polyline class="st1" points="28.63382287545525,13.689499702672968 0.0,0.0 "/> 

<polyline class="st1" points="24.897625646350896,19.682643413591528 28.63382287545525,13.689499702672968 "/> 

<polyline class="st1" points="49.905321274112815,39.2252474867862 57.19036720225326,27.53948131580328 "/> 

<polyline class="st1" points="75.12518696241158,58.493267344483 85.59377896704855,41.70085182475884 "/> 

<polyline class="st1" points="100.55420792356,77.48439968381183 113.84066282043202,56.17191837653356 "/> 

<polyline class="st1" points="126.18934436740861,96.19637430109083 141.92764212437174,70.95095109699567 "/> 

<polyline class="st1" points="152.0275318647227,114.62695436320688 169.85135935585703,86.03618329767721 "/> 

<polyline class="st1" points="24.897625646350896,19.682643413591528 0.0,0.0 "/> 

<polyline class="st1" points="19.928608390096592,24.701189894549607 24.897625646350896,19.682643413591528 "/> 

<polyline class="st1" points="39.99552988353137,49.29014831797115 49.684397122002295,39.50470623223535 "/> 

<polyline class="st1" points="60.33008995590878,73.65823977453174 74.25296691607313,59.59658501064472 "/> 

<polyline class="st1" points="80.92985780993244,97.80255129780282 98.6003980969151,79.95587796169272 "/> 

<polyline class="st1" points="101.7923709453158,121.7201966720529 122.72378016783301,100.5801513315098 "/> 

<polyline class="st1" points="122.9151354531498,145.40831677726632 146.62022941500618,121.46693969041513 "/> 

<polyline class="st1" points="19.928608390096592,24.701189894549607 0.0,0.0 "/> 

<polyline class="st1" points="13.97281480884198,28.4966429758004 19.928608390096592,24.701189894549607 "/> 

<polyline class="st1" points="28.105337191345548,56.91441955456292 39.71827599446247,49.5138332579871 "/> 

<polyline class="st1" points="42.54771439546472,85.17598276798701 59.23547717744625,74.54135955515366 "/> 

<polyline class="st1" points="57.29821997659796,113.27795422326723 78.47787884899336,99.78077699065065 "/> 

<polyline class="st1" points="72.35509065641722,141.21697460522816 97.4431807686367,125.2290684395712 "/> 

<polyline class="st1" points="87.71652653365042,168.98970407789758 116.1291158204678,150.88319180816785 "/> 

<polyline class="st1" points="13.97281480884198,28.4966429758004 0.0,0.0 "/> 

<polyline class="st1" points="7.325149393032635,30.881068649614143 13.97281480884198,28.4966429758004 "/> 

<polyline class="st1" points="14.82349281913813,61.72054109057215 27.785481948574763,57.0712548027242 "/> 

<polyline class="st1" points="22.65856467264695,92.47618876092338 41.284909256207904,85.79517648724276 "/> 

<polyline class="st1" points="30.82942834753412,123.14433512451758 54.469483007555304,114.66497436612838 "/> 

<polyline class="st1" points="39.33510709715459,153.72131410512787 67.33762711608671,143.6771973380845 "/> 

<polyline class="st1" points="48.17458415100359,184.20347052469415 79.8878033213334,172.8283772762909 "/> 

<polyline class="st1" points="7.325149393032635,30.881068649614143 0.0,0.0 "/> 

<polyline class="st1" points="0.3147750586353242,31.736400729050686 7.325149393032635,30.881068649614143 "/> 

<polyline class="st1" points="0.8076548091709057,63.470535097644074 14.476874036064922,61.80276086078965 "/> 

<polyline class="st1" points="1.6474632942099348,95.19738392132784 21.290095683875474,92.80079669131015 "/> 

<polyline class="st1" points="2.8341001228814946,126.9131545663755 27.763999882613184,123.87147062989722 "/> 

<polyline class="st1" points="4.367423444386553,158.6140557233483 33.897812740501315,155.0110684820988 "/> 

<polyline class="st1" points="6.247249964954726,190.29629786030878 39.69080102034872,186.21586781428448 "/> 

<polyline class="st1" points="0.3147750586353242,31.736400729050686 0.0,0.0 "/> 

<polyline class="st1" points="-6.711185540968356,31.02028696203704 0.3147750586353242,31.736400729050686 "/> 

<polyline class="st1" points="-13.248174685844445,62.07774963193653 0.4514355110422894,63.474068231455064 "/> 

<polyline class="st1" points="-19.44521316178449,93.20482673050371 0.24109097252303968,95.21133291742859 "/> 

<polyline class="st1" points="-25.301560173594552,124.39779732084169 -0.31623341229507673,126.94440090813058 "/> 

<polyline class="st1" points="-30.816515652405045,155.6529325891327 -1.2204710207459044,158.66947882639414 "/> 

<polyline class="st1" points="-35.98942033935715,186.966496290381 -2.4715137600884205,190.38277425018703 "/> 

<polyline class="st1" points="-6.711185540968356,31.02028696203704 0.0,0.0 "/> 

<polyline class="st1" points="-13.40483798965253,28.768186127102215 -6.711185540968356,31.02028696203704 "/> 

<polyline class="st1" points="-26.64801331217695,57.61114925416855 -13.596356098844126,62.00242118422044 "/> 

<polyline class="st1" points="-39.57504888113377,86.59717978563927 -20.819851494803125,92.90742609988072 "/> 

<polyline class="st1" points="-52.18439939615753,115.72281272574371 -28.380808230790013,123.73160731867326 "/> 

<polyline class="st1" points="-64.4745575330164,144.98456639061197 -36.27832246855475,154.471280111934 "/> 

<polyline class="st1" points="-76.44405412379791,174.3789428244759 -44.51145013769741,185.12276985315248 "/> 

<polyline class="st1" points="-13.40483798965253,28.768186127102215 0.0,0.0 "/> 

<polyline class="st1" points="-19.43474229748673,25.09161227188696 -13.40483798965253,28.768186127102215 "/> 

<polyline class="st1" points="-38.728360475281306,50.29190021035907 -26.970916440295348,57.46068915565362 "/> 

<polyline class="st1" points="-57.745303653725145,75.70162446546001 -40.849887230312355,86.0031554888611 "/> 

<polyline class="st1" points="-76.48329854370361,101.31774755377234 -55.0400912648152,114.39217315470515 "/> 

<polyline class="st1" points="-94.94010520163513,127.13720731892165 -69.53983224403255,142.62434852445017 "/> 

<polyline class="st1" points="-113.11351729723444,153.15691729762722 -84.3473768660858,170.69630671831914 "/> 

<polyline class="st1" points="-19.43474229748673,25.09161227188696 0.0,0.0 "/> 

<polyline class="st1" points="-24.502324339448503,20.172613031952444 -19.43474229748673,25.09161227188696 "/> 

<polyline class="st1" points="-48.89105094731051,40.48241925996437 -39.00999658735071,50.073758577991015 "/> 

<polyline class="st1" points="-73.05626702924303,61.05766035906055 -58.85721767658342,74.84038995182837 "/> 

<polyline class="st1" points="-96.99508387057956,81.89587676088748 -78.97403302448598,99.38854578543058 "/> 

<polyline class="st1" points="-120.70463982046319,102.9945774609725 -99.35803786300914,123.71529158743822 "/> 

<polyline class="st1" points="-144.18210063392874,124.35124031649875 -120.00679548421928,147.81771933389024 "/> 

<polyline class="st1" points="-24.502324339448503,20.172613031952444 0.0,0.0 "/> 

<polyline class="st1" points="-28.356659922231426,14.254755439057597 -24.502324339448503,20.172613031952444 "/> 

<polyline class="st1" points="-56.63287335696339,28.66842840488807 -49.11747467182202,40.20739750014871 "/> 

<polyline class="st1" points="-84.74980798939637,43.390391638367404 -73.95019967354156,59.971860143018645 "/> 

<polyline class="st1" points="-112.70410271565387,58.418885273125284 -98.99753083579346,79.46363831282429 "/> 

<polyline class="st1" points="-140.49241587386564,73.7521128000873 -124.2564739957017,98.6804019585831 "/> 

<polyline class="st1" points="-168.11142564363038,89.38824128222967 -149.72400969425024,117.61985390460254 "/> 

<polyline class="st1" points="-28.356659922231426,14.254755439057597 0.0,0.0 "/> 

<polyline class="st1" points="-30.80689943771201,7.631065561710737 -28.356659922231426,14.254755439057597 "/> 

<polyline class="st1" points="-61.570486985376746,15.434904089614514 -56.79287319503094,28.350144375737813 "/> 

<polyline class="st1" points="-92.24691423442846,23.574623114621783 -85.38149567424323,42.13378973222845 "/> 

<polyline class="st1" points="-122.83251411874156,32.04924961312494 -114.11910987033403,55.604043808862144 "/> 

<polyline class="st1" points="-153.32363042971156,40.85777052661153 -143.00228048327025,68.75929636882657 "/> 

<polyline class="st1" points="-183.71661825331853,49.999132882765124 -172.02755481317578,81.59797483065239 "/> 

<polyline class="st1" points="-30.80689943771201,7.631065561710737 0.0,0.0 "/> 

<polyline class="st1" points="-31.731717889326116,0.6295191535203379 -30.80689943771201,7.631065561710737 "/> 

<polyline class="st1" points="-63.45940309880949,1.4371117614349078 -61.65614045445072,15.089117804997327 "/> 

<polyline class="st1" points="-95.17636230488857,2.591543782968767 -92.58507858654238,22.20944087306625 "/> 

<polyline class="st1" points="-126.87880405604369,4.092677217091744 -123.59001658266091,28.99118360110245 "/> 

<polyline class="st1" points="-158.56293863617475,5.940332618018999 -154.66724810644178,35.43353529825103 "/> 

<polyline class="st1" points="-190.22497851762407,8.134289116661769 -185.81305817953762,41.53572584452754 "/> 

<polyline class="st1" points="-31.731717889326116,0.6295191535203379 0.0,0.0 "/> 

<polyline class="st1" points="-31.08532236794971,-6.403198251895175 -31.731717889326116,0.6295191535203379 "/> 

<polyline class="st1" points="-62.20609094668632,-12.631839969087522 -63.466469018884645,1.0809450249655175 "/> 

<polyline class="st1" points="-93.39309892135736,-18.519857306038173 -95.20425892495713,1.1853789774470336 "/> 

<polyline class="st1" points="-124.64261819091726,-24.066546408000736 -126.94129366591793,0.9428085269097544 "/> 

<polyline class="st1" points="-155.95091318170813,-29.271244222672834 -158.67377939041413,0.3532626702728052 "/> 

<polyline class="st1" points="-187.31424129401043,-34.13332857945761 -190.3979227908828,-0.5831881180364604 "/> 

<polyline class="st1" points="-31.08532236794971,-6.403198251895175 0.0,0.0 "/> 

<polyline class="st1" points="-28.899719513715148,-13.118857671345474 -31.08532236794971,-6.403198251895175 "/> 

<polyline class="st1" points="-57.872608989655426,-26.07531899330285 -62.134219444730476,-12.980751359845083 "/> 

<polyline class="st1" points="-86.98542337968446,-38.7142371773938 -93.10934649244702,-19.897377629222806 "/> 

<polyline class="st1" points="-116.23468253226429,-51.03410136486158 -124.00700073834128,-27.152250245168503 "/> 

<polyline class="st1" points="-145.61688998522342,-63.03343883672664 -154.82348867076922,-34.74450195878788 "/> 

<polyline class="st1" points="-175.12853338372415,-74.71081518983578 -185.55512648072352,-42.67322519082296 "/> 

<polyline class="st1" points="-28.899719513715148,-13.118857671345474 0.0,0.0 "/> 

<polyline class="st1" points="-25.283130689107704,-19.18492942728558 -28.899719513715148,-13.118857671345474 "/> 

<polyline class="st1" points="-50.67353203978142,-38.22766383766201 -57.725358823770705,-26.39969849333435 "/> 

<polyline class="st1" points="-76.27061536137279,-56.99165968076364 -86.40407206393043,-39.99490431969514 "/> 

<polyline class="st1" points="-102.07132077352479,-75.47467390484994 -114.93243097519289,-53.90284997685883 "/> 

<polyline class="st1" points="-128.07256405485595,-93.67449704677811 -143.30702527194268,-68.12187290627588 "/> 

<polyline class="st1" points="-154.27123701164825,-111.58895349612267 -171.5244630496163,-82.65027336315836 "/> 

<polyline class="st1" points="-25.283130689107704,-19.18492942728558 0.0,0.0 "/> 

<polyline class="st1" points="-20.414633336943545,-24.301048543027548 -25.283130689107704,-19.18492942728558 "/> 

<polyline class="st1" points="-40.965326467266124,-48.48714426837645 -50.45819438528239,-38.51144961240876 "/> 

<polyline class="st1" points="-61.779224650553175,-72.44710789498043 -75.42045109824785,-58.11206068371055 "/> 

<polyline class="st1" points="-82.85383978933655,-96.17807524409179 -100.16691683494429,-77.98441958030196 "/> 

<polyline class="st1" points="-104.18665261999229,-119.67720951122261 -124.69463339800757,-98.12615075650587 "/> 

<polyline class="st1" points="-125.7751130138935,-142.9417016052569 -149.00066873939244,-118.5348464658297 "/> 

<polyline class="st1" points="-20.414633336943545,-24.301048543027548 0.0,0.0 "/> 

<polyline class="st1" points="-14.535293859422117,-28.213887484582372 -20.414633336943545,-24.301048543027548 "/> 

<polyline class="st1" points="-29.228699566350645,-56.345756304552864 -40.69256389000691,-48.71628450456529 "/> 

<polyline class="st1" points="-44.228800661106035,-84.31529655317948 -60.70234380478041,-73.35176546871038 "/> 

<polyline class="st1" points="-59.53380402866351,-112.11916474613926 -80.4415811082513,-98.20454650524006 "/> 

<polyline class="st1" points="-75.14188010592102,-139.75403720357923 -99.9079161681237,-123.2716567078385 "/> 

<polyline class="st1" points="-91.0511631004052,-167.21661044742953 -119.09902197488928,-148.550099549239 "/> 

<polyline class="st1" points="-14.535293859422117,-28.213887484582372 0.0,0.0 "/> 

<polyline class="st1" points="-7.9362310787658945,-30.729699816901213 -14.535293859422117,-28.213887484582372 "/> 

<polyline class="st1" points="-16.04479706153728,-61.41437632286214 -28.912018059741172,-56.50890499368434 "/> 

<polyline class="st1" points="-24.48836257126511,-92.0085655759762 -42.97852559733097,-84.9594160658489 "/> 

<polyline class="st1" points="-33.265918262473434,-122.50861034086407 -56.733134959123554,-113.56201972140644 "/> 

<polyline class="st1" points="-42.37641486443472,-152.9108646361969 -70.17420191642009,-142.31329679951034 "/> 

<polyline class="st1" points="-51.8187633065996,-183.21169417053758 -83.30011972144214,-171.2098103668636 "/> 

<polyline class="st1" points="-7.9362310787658945,-30.729699816901213 0.0,0.0 "/> 

<polyline class="st1" points="-0.9442013239505762,-31.72391366827678 -7.9362310787658945,-30.729699816901213 "/> 

<polyline class="st1" points="-2.066427348083927,-63.44202873401146 -15.699877289634497,-61.503455065243784 "/> 

<polyline class="st1" points="-3.53536934709998,-95.14597839294122 -23.126601366987252,-92.3602530853122 "/> 

<polyline class="st1" points="-5.350851723384192,-126.83197274871029 -30.215515518772374,-123.29640524942346 "/> 

<polyline class="st1" points="-7.512657453817567,-158.4962240513433 -36.96577233480281,-154.3082134438849 "/> 

<polyline class="st1" points="-10.020528115719415,-190.13494715003358 -43.376564888055775,-185.39197051106683 "/> 

<polyline class="st1" points="-0.9442013239505762,-31.72391366827678 0.0,0.0 "/> 

<polyline class="st1" points="6.094581093884173,-31.147299977084657 -0.9442013239505762,-31.72391366827678 "/> 

<polyline class="st1" points="12.014262685208502,-62.32831318111257 -1.7103482086350184,-63.45262674529133 "/> 

<polyline class="st1" points="17.592679691478345,-93.57218423251376 -2.1295503791724286,-95.1878198928467 "/> 

<polyline class="st1" points="22.82916526763157,-124.87517823281934 -2.2017577240531736,-126.92569947973422 "/> 

<polyline class="st1" points="27.72309344315603,-156.2335532159915 -1.9269616115970578,-158.66247155360793 "/> 

<polyline class="st1" points="32.27387919691843,-187.64356059573882 -1.3051948909852413,-190.3943422945139 "/> 

<polyline class="st1" points="6.094581093884173,-31.147299977084657 0.0,0.0 "/> 

<polyline class="st1" points="12.83158687902499,-29.02841009663571 6.094581093884173,-31.147299977084657 "/> 

<polyline class="st1" points="25.50005970098397,-58.12837592018461 12.363869732055559,-62.25990569476316 "/> 

<polyline class="st1" points="37.84961723681806,-87.36511040339168 18.972946501096537,-93.3021079174366 "/> 

<polyline class="st1" points="49.87878321799917,-116.73511858128674 25.921021350674817,-124.27019585416727 "/> 

<polyline class="st1" points="61.58611967566824,-146.23488955733606 33.207263706561214,-155.16046757365396 "/> 

<polyline class="st1" points="72.97022711253058,-175.86089692313553 40.83080256991642,-185.96923044676097 "/> 

<polyline class="st1" points="12.83158687902499,-29.02841009663571 0.0,0.0 "/> 

<polyline class="st1" points="18.93322937654665,-25.472162058755423 12.83158687902499,-29.02841009663571 "/> 

<polyline class="st1" points="37.72320682638727,-51.050179222071826 25.825883664409893,-57.98435017161447 "/> 

<polyline class="st1" points="56.232409559946674,-76.83210367973058 39.13598719575029,-86.79648925494928 "/> 

<polyline class="st1" points="74.45862498350263,-102.81485345542904 52.76030638066136,-115.46138313788717 "/> 

<polyline class="st1" points="92.39967433169119,-128.99532256616675 66.69721256535766,-143.97560521339548 "/> 

<polyline class="st1" points="110.05341292795698,-155.37038139353518 80.94503972934226,-172.33574688577872 "/> 

<polyline class="st1" points="18.93322937654665,-25.472162058755423 0.0,0.0 "/> 

<polyline class="st1" points="24.097382304357016,-20.654645498049334 18.93322937654665,-25.472162058755423 "/> 

<polyline class="st1" points="48.07846801260641,-41.444204002885954 38.00911434841076,-50.83766672774701 "/> 

<polyline class="st1" points="71.8308222934271,-62.49471185164827 57.36118733152824,-75.99309329595539 "/> 

<polyline class="st1" points="95.35160578573334,-83.80365266250234 76.98713497530184,-100.93543467875831 "/> 

<polyline class="st1" points="118.63800681045655,-105.3684791604874 96.88461119010391,-125.66170926377855 "/> 

<polyline class="st1" points="141.68724170665433,-127.18661348201746 117.05123742772787,-150.16896126730603 "/> 

<polyline class="st1" points="24.097382304357016,-20.654645498049334 0.0,0.0 "/> 

<polyline class="st1" points="28.068339707073036,-14.814402473970233 24.097382304357016,-20.654645498049334 "/> 

<polyline class="st1" points="56.053096640422666,-29.786095563055632 48.31030222043687,-41.1737274392554 "/> 

<polyline class="st1" points="83.87249120129842,-45.06285899117554 72.74611580735487,-61.42685630661373 "/> 

<polyline class="st1" points="111.52319785382235,-60.64286657103562 97.40190200316562,-81.41161103713003 "/> 

<polyline class="st1" points="139.00191122710189,-76.52425586547633 122.2747134503552,-101.12560264930708 "/> 

<polyline class="st1" points="166.3053465103549,-92.70512841010893 147.36157684816817,-120.5664745287238 "/> 

<polyline class="st1" points="28.068339707073036,-14.814402473970233 0.0,0.0 "/> 

<polyline class="st1" points="30.649477381143594,-8.240615925717893 28.068339707073036,-14.814402473970233 "/> 

<polyline class="st1" points="61.25222445930084,-16.653111741037243 56.2193781320299,-29.471047730270442 "/> 

<polyline class="st1" points="91.76116623141525,-25.39969315997792 84.52897918112944,-43.819033756652374 "/> 

<polyline class="st1" points="122.17265565260809,-34.47931461448278 112.99375871911383,-57.85664539205429 "/> 

<polyline class="st1" points="152.48305732747355,-43.890890724823734 141.61031406065848,-71.58220457763011 "/> 

<polyline class="st1" points="182.68874794465498,-53.63329642934804 170.3752243771291,-84.99407055734474 "/> 

<polyline class="st1" points="30.649477381143594,-8.240615925717893 0.0,0.0 "/> 

<polyline class="st1" points="31.71298883358723,-1.2587906153129538 30.649477381143594,-8.240615925717893 "/> 

<polyline class="st1" points="63.41841371232917,-2.6955396646876384 61.344719712504485,-16.30909241087022 "/> 

<polyline class="st1" points="95.1062351742864,-4.47884714449841 92.12634230322398,-24.041486946519314 "/> 

<polyline class="st1" points="126.77266525107098,-6.608499877819494 122.99066551210467,-31.43687520070684 "/> 

<polyline class="st1" points="158.4139185314252,-9.084243285545881 153.9339998119013,-38.49437312727146 "/> 

<polyline class="st1" points="190.02621261373068,-11.90578141682542 184.95264623036678,-45.21313707152791 "/> 

</svg>