<?xml version="1.0" encoding="utf-8"?>
<!-- Generator: Adobe Illustrator 24.2.0, SVG Export Plug-In . SVG Version: 6.00 Build 0)  -->
<svg version="1.1" id="Layer_1" xmlns="http://www.w3.org/2000/svg" xmlns:xlink="http://www.w3.org/1999/xlink" x="0px" y="0px"
	 viewBox="-100 -200 500 500" style="enable-background:new 0 0 85.04 85.04;" xml:space="preserve">
<style type="text/css">
	.st0{fill:none;stroke:#000000;stroke-miterlimit:10;}
	.st1{fill:none;stroke:#FF0000;stroke-miterlimit:10;}
</style>

    <polygon class="st0" points="0.0,0.0 108.47719341517559,0.0 214.47090378777705,23.07888326333165 176.1184242537994,124.55000627293097 81.3578950613817,71.750919174702 145.5879314278662,159.16833116792844 49.70673259292201,209.9038926727281 13.559649176896947,107.62637876205301 3.9109933540222386,215.67361348856102 -101.55832536441636,190.3058327361612 -61.01842129603628,89.68864896837749 -139.72144139683283,164.34208906491307 -202.04422063954655,75.55485643151368 -105.08728112095136,26.906594690513238 -213.4931554492715,30.839520108808586 -201.50800559490347,-76.97354808889068 -96.61250038539075,-49.32875693260763 -180.5182917770744,-118.0828089017002 -100.21778775280865,-191.0151785648497 -39.83146945713477,-100.89973008942468 -57.2842822163401,-207.96373346135888 51.18132396569051,-209.54921975838386 36.86529619968859,-102.02083820152939 94.59186845256426,-193.86279129033812 176.9897737013444,-123.3086510727261 95.12941375666765,-52.1315272128694 "/> 

<polyline class="st1" points="81.3578950613817,71.750919174702 108.47719341517559,0.0 "/> 

<polyline class="st1" points="81.3578950613817,71.750919174702 0.0,0.0 "/> 

<polyline class="st1" points="13.559649176896947,107.62637876205301 81.3578950613817,71.750919174702 "/> 

<polyline class="st1" points="13.559649176896947,107.62637876205301 0.0,0.0 "/> 

<polyline class="st1" points="-61.01842129603628,89.68864896837749 13.559649176896947,107.62637876205301 "/> 

<polyline class="st1" points="-61.01842129603628,89.68864896837749 0.0,0.0 "/> 

<polyline class="st1" points="-105.08728112095136,26.906594690513238 -61.01842129603628,89.68864896837749 "/> 

<polyline class="st1" points="-105.08728112095136,26.906594690513238 0.0,0.0 "/> 

<polyline class="st1" points="-96.61250038539075,-49.32875693260763 -105.08728112095136,26.906594690513238 "/> 

<polyline class="st1" points="-96.61250038539075,-49.32875693260763 0.0,0.0 "/> 

<polyline class="st1" points="-39.83146945713477,-100.89973008942468 -96.61250038539075,-49.32875693260763 "/> 

<polyline class="st1" points="-39.83146945713477,-100.89973008942468 0.0,0.0 "/> 

<polyline class="st1" points="36.86529619968859,-102.02083820152939 -39.83146945713477,-100.89973008942468 "/> 

<polyline class="st1" points="36.86529619968859,-102.02083820152939 0.0,0.0 "/> 

<polyline class="st1" points="95.12941375666765,-52.1315272128694 36.86529619968859,-102.02083820152939 "/> 

</svg>