<?xml version="1.0" encoding="utf-8"?>
<!-- Generator: Adobe Illustrator 24.2.0, SVG Export Plug-In . SVG Version: 6.00 Build 0)  -->
<svg version="1.1" id="Layer_1" xmlns="http://www.w3.org/2000/svg" xmlns:xlink="http://www.w3.org/1999/xlink" x="0px" y="0px"
	 viewBox="0 0 283 283" style="enable-background:new 0 0 85.04 85.04;" xml:space="preserve">
<style type="text/css">
	.st0{fill:none;stroke:#000000;stroke-miterlimit:10;}
</style>
    <polygon class="st0" points="0.0,28.34645669 0.0,0.0 28.34645669,0.0 28.34645669,28.34645669 56.69291338,28.34645669 56.69291338,0.0 85.03937007,0.0 85.03937007,28.34645669 113.38582676,28.34645669 113.38582676,0.0 141.73228344999998,0.0 141.73228344999998,28.34645669 170.07874014,28.34645669 170.07874014,0.0 198.42519683,0.0 198.42519683,28.34645669 226.77165352,28.34645669 226.77165352,0.0 255.11811021,0.0 283.46456689999997,0.0 283.46456689999997,28.34645669 255.11811021,28.34645669 255.11811021,56.69291338 283.46456689999997,56.69291338 283.46456689999997,85.03937007 255.11811021,85.03937007 255.11811021,113.38582676 283.46456689999997,113.38582676 283.46456689999997,141.73228344999998 255.11811021,141.73228344999998 255.11811021,170.07874014 283.46456689999997,170.07874014 283.46456689999997,198.42519683 255.11811021,198.42519683 255.11811021,226.77165352 283.46456689999997,226.77165352 283.46456689999997,255.11811021 283.46456689999997,283.46456689999997 255.11811021,283.46456689999997 255.11811021,255.11811021 226.77165352,255.11811021 226.77165352,283.46456689999997 198.42519683,283.46456689999997 198.42519683,255.11811021 170.07874014,255.11811021 170.07874014,283.46456689999997 141.73228344999998,283.46456689999997 141.73228344999998,255.11811021 113.38582676,255.11811021 113.38582676,283.46456689999997 85.03937007,283.46456689999997 85.03937007,255.11811021 56.69291338,255.11811021 56.69291338,283.46456689999997 28.34645669,283.46456689999997 0.0,283.46456689999997 0.0,255.11811021 28.34645669,255.11811021 28.34645669,226.77165352 0.0,226.77165352 0.0,198.42519683 28.34645669,198.42519683 28.34645669,170.07874014 0.0,170.07874014 0.0,141.73228344999998 28.34645669,141.73228344999998 28.34645669,113.38582676 0.0,113.38582676 0.0,85.03937007 28.34645669,85.03937007 28.34645669,56.69291338 0.0,56.69291338 "/> 
</svg>