<?xml version="1.0" encoding="utf-8"?>
<!-- Generator: Adobe Illustrator 24.2.0, SVG Export Plug-In . SVG Version: 6.00 Build 0)  -->
<svg version="1.1" id="Layer_1" xmlns="http://www.w3.org/2000/svg" xmlns:xlink="http://www.w3.org/1999/xlink" x="0px" y="0px"
	 viewBox="0 0 283 283" style="enable-background:new 0 0 85.04 85.04;" xml:space="preserve">
<style type="text/css">
	.st0{fill:none;stroke:#000000;stroke-miterlimit:10;}
	.st1{fill:none;stroke:#FF0000;stroke-miterlimit:10;}
</style>
    <polyline class="st1" points="8.503937007,8.503937007 8.503937007,59.527559049 "/> 
<polyline class="st1" points="17.007874014,8.503937007 17.007874014,59.527559049 "/> 
<polyline class="st1" points="25.511811021,8.503937007 25.511811021,59.527559049 "/> 
<polyline class="st1" points="34.015748028,8.503937007 34.015748028,59.527559049 "/> 
<polyline class="st1" points="42.519685035,8.503937007 42.519685035,59.527559049 "/> 
<polyline class="st1" points="51.023622042,8.503937007 51.023622042,59.527559049 "/> 
<polyline class="st1" points="59.527559049,8.503937007 59.527559049,59.527559049 "/> 
<polyline class="st1" points="8.503937007,8.503937007 59.527559049,8.503937007 "/> 
<polyline class="st1" points="8.503937007,17.007874014 59.527559049,17.007874014 "/> 
<polyline class="st1" points="8.503937007,25.511811021 59.527559049,25.511811021 "/> 
<polyline class="st1" points="8.503937007,34.015748028 59.527559049,34.015748028 "/> 
<polyline class="st1" points="8.503937007,42.519685035 59.527559049,42.519685035 "/> 
<polyline class="st1" points="8.503937007,51.023622042 59.527559049,51.023622042 "/> 
<polyline class="st1" points="8.503937007,59.527559049 59.527559049,59.527559049 "/> 
<polygon class="st0" points="8.503937007,8.503937007 17.007874014,8.503937007 17.007874014,0.0 25.511811021,0.0 25.511811021,8.503937007 34.015748028,8.503937007 34.015748028,0.0 42.519685035,0.0 42.519685035,8.503937007 51.023622042,8.503937007 51.023622042,0.0 59.527559049,0.0 59.527559049,8.503937007 59.527559049,8.503937007 59.527559049,17.007874014 68.031496056,17.007874014 68.031496056,25.511811021 59.527559049,25.511811021 59.527559049,34.015748028 68.031496056,34.015748028 68.031496056,42.519685035 59.527559049,42.519685035 59.527559049,51.023622042 68.031496056,51.023622042 68.031496056,59.527559049 59.527559049,59.527559049 59.527559049,59.527559049 51.023622042,59.527559049 51.023622042,68.031496056 42.519685035,68.031496056 42.519685035,59.527559049 34.015748028,59.527559049 34.015748028,68.031496056 25.511811021,68.031496056 25.511811021,59.527559049 17.007874014,59.527559049 17.007874014,68.031496056 8.503937007,68.031496056 8.503937007,59.527559049 8.503937007,59.527559049 8.503937007,51.023622042 0.0,51.023622042 0.0,42.519685035 8.503937007,42.519685035 8.503937007,34.015748028 0.0,34.015748028 0.0,25.511811021 8.503937007,25.511811021 8.503937007,17.007874014 0.0,17.007874014 0.0,8.503937007 8.503937007,8.503937007 "/> 
</svg>