<?xml version="1.0" encoding="utf-8"?>
<!-- Generator: Adobe Illustrator 24.2.0, SVG Export Plug-In . SVG Version: 6.00 Build 0)  -->
<svg version="1.1" id="Layer_1" xmlns="http://www.w3.org/2000/svg" xmlns:xlink="http://www.w3.org/1999/xlink" x="0px" y="0px"
	 viewBox="0 0 283 283" style="enable-background:new 0 0 85.04 85.04;" xml:space="preserve">
<style type="text/css">
	.st0{fill:none;stroke:#000000;stroke-miterlimit:10;}
</style>
    <polygon class="st0" points="28.34645669,28.34645669 56.69291338,28.34645669 56.69291338,0.0 85.03937007,0.0 85.03937007,28.34645669 113.38582676,28.34645669 113.38582676,0.0 141.73228344999998,0.0 141.73228344999998,28.34645669 170.07874014,28.34645669 170.07874014,0.0 198.42519683,0.0 198.42519683,28.34645669 198.42519683,28.34645669 198.42519683,56.69291338 226.77165352,56.69291338 226.77165352,85.03937007 198.42519683,85.03937007 198.42519683,113.38582676 226.77165352,113.38582676 226.77165352,141.73228344999998 198.42519683,141.73228344999998 198.42519683,170.07874014 226.77165352,170.07874014 226.77165352,198.42519683 198.42519683,198.42519683 198.42519683,198.42519683 170.07874014,198.42519683 170.07874014,226.77165352 141.73228344999998,226.77165352 141.73228344999998,198.42519683 113.38582676,198.42519683 113.38582676,226.77165352 85.03937007,226.77165352 85.03937007,198.42519683 56.69291338,198.42519683 56.69291338,226.77165352 28.34645669,226.77165352 28.34645669,198.42519683 28.34645669,198.42519683 28.34645669,170.07874014 0.0,170.07874014 0.0,141.73228344999998 28.34645669,141.73228344999998 28.34645669,113.38582676 0.0,113.38582676 0.0,85.03937007 28.34645669,85.03937007 28.34645669,56.69291338 0.0,56.69291338 0.0,28.34645669 28.34645669,28.34645669 "/> 
</svg>