<?xml version="1.0" encoding="utf-8"?>
<!-- Generator: Adobe Illustrator 24.2.0, SVG Export Plug-In . SVG Version: 6.00 Build 0)  -->
<svg version="1.1" id="Layer_1" xmlns="http://www.w3.org/2000/svg" xmlns:xlink="http://www.w3.org/1999/xlink" x="0px" y="0px"
	 viewBox="0 0 283 283" style="enable-background:new 0 0 85.04 85.04;" xml:space="preserve">
<style type="text/css">
	.st0{fill:none;stroke:#000000;stroke-miterlimit:10;}
	.st1{fill:none;stroke:#FF0000;stroke-miterlimit:10;}
</style>
    <polyline class="st1" points="8.503937007,8.503937007 8.503937007,246.614173203 "/> 
<polyline class="st1" points="17.007874014,8.503937007 17.007874014,246.614173203 "/> 
<polyline class="st1" points="25.511811021,8.503937007 25.511811021,246.614173203 "/> 
<polyline class="st1" points="34.015748028,8.503937007 34.015748028,246.614173203 "/> 
<polyline class="st1" points="42.519685035,8.503937007 42.519685035,246.614173203 "/> 
<polyline class="st1" points="51.023622042,8.503937007 51.023622042,246.614173203 "/> 
<polyline class="st1" points="59.527559049,8.503937007 59.527559049,246.614173203 "/> 
<polyline class="st1" points="68.031496056,8.503937007 68.031496056,246.614173203 "/> 
<polyline class="st1" points="76.535433063,8.503937007 76.535433063,246.614173203 "/> 
<polyline class="st1" points="85.03937007,8.503937007 85.03937007,246.614173203 "/> 
<polyline class="st1" points="93.543307077,8.503937007 93.543307077,246.614173203 "/> 
<polyline class="st1" points="102.047244084,8.503937007 102.047244084,246.614173203 "/> 
<polyline class="st1" points="110.551181091,8.503937007 110.551181091,246.614173203 "/> 
<polyline class="st1" points="119.055118098,8.503937007 119.055118098,246.614173203 "/> 
<polyline class="st1" points="127.559055105,8.503937007 127.559055105,246.614173203 "/> 
<polyline class="st1" points="136.062992112,8.503937007 136.062992112,246.614173203 "/> 
<polyline class="st1" points="144.566929119,8.503937007 144.566929119,246.614173203 "/> 
<polyline class="st1" points="153.070866126,8.503937007 153.070866126,246.614173203 "/> 
<polyline class="st1" points="161.574803133,8.503937007 161.574803133,246.614173203 "/> 
<polyline class="st1" points="170.07874014,8.503937007 170.07874014,246.614173203 "/> 
<polyline class="st1" points="178.582677147,8.503937007 178.582677147,246.614173203 "/> 
<polyline class="st1" points="187.086614154,8.503937007 187.086614154,246.614173203 "/> 
<polyline class="st1" points="195.590551161,8.503937007 195.590551161,246.614173203 "/> 
<polyline class="st1" points="204.094488168,8.503937007 204.094488168,246.614173203 "/> 
<polyline class="st1" points="212.598425175,8.503937007 212.598425175,246.614173203 "/> 
<polyline class="st1" points="221.102362182,8.503937007 221.102362182,246.614173203 "/> 
<polyline class="st1" points="229.606299189,8.503937007 229.606299189,246.614173203 "/> 
<polyline class="st1" points="238.110236196,8.503937007 238.110236196,246.614173203 "/> 
<polyline class="st1" points="246.614173203,8.503937007 246.614173203,246.614173203 "/> 
<polyline class="st1" points="8.503937007,8.503937007 246.614173203,8.503937007 "/> 
<polyline class="st1" points="8.503937007,17.007874014 246.614173203,17.007874014 "/> 
<polyline class="st1" points="8.503937007,25.511811021 246.614173203,25.511811021 "/> 
<polyline class="st1" points="8.503937007,34.015748028 246.614173203,34.015748028 "/> 
<polyline class="st1" points="8.503937007,42.519685035 246.614173203,42.519685035 "/> 
<polyline class="st1" points="8.503937007,51.023622042 246.614173203,51.023622042 "/> 
<polyline class="st1" points="8.503937007,59.527559049 246.614173203,59.527559049 "/> 
<polyline class="st1" points="8.503937007,68.031496056 246.614173203,68.031496056 "/> 
<polyline class="st1" points="8.503937007,76.535433063 246.614173203,76.535433063 "/> 
<polyline class="st1" points="8.503937007,85.03937007 246.614173203,85.03937007 "/> 
<polyline class="st1" points="8.503937007,93.543307077 246.614173203,93.543307077 "/> 
<polyline class="st1" points="8.503937007,102.047244084 246.614173203,102.047244084 "/> 
<polyline class="st1" points="8.503937007,110.551181091 246.614173203,110.551181091 "/> 
<polyline class="st1" points="8.503937007,119.055118098 246.614173203,119.055118098 "/> 
<polyline class="st1" points="8.503937007,127.559055105 246.614173203,127.559055105 "/> 
<polyline class="st1" points="8.503937007,136.062992112 246.614173203,136.062992112 "/> 
<polyline class="st1" points="8.503937007,144.566929119 246.614173203,144.566929119 "/> 
<polyline class="st1" points="8.503937007,153.070866126 246.614173203,153.070866126 "/> 
<polyline class="st1" points="8.503937007,161.574803133 246.614173203,161.574803133 "/> 
<polyline class="st1" points="8.503937007,170.07874014 246.614173203,170.07874014 "/> 
<polyline class="st1" points="8.503937007,178.582677147 246.614173203,178.582677147 "/> 
<polyline class="st1" points="8.503937007,187.086614154 246.614173203,187.086614154 "/> 
<polyline class="st1" points="8.503937007,195.590551161 246.614173203,195.590551161 "/> 
<polyline class="st1" points="8.503937007,204.094488168 246.614173203,204.094488168 "/> 
<polyline class="st1" points="8.503937007,212.598425175 246.614173203,212.598425175 "/> 
<polyline class="st1" points="8.503937007,221.102362182 246.614173203,221.102362182 "/> 
<polyline class="st1" points="8.503937007,229.606299189 246.614173203,229.606299189 "/> 
<polyline class="st1" points="8.503937007,238.110236196 246.614173203,238.110236196 "/> 
<polyline class="st1" points="8.503937007,246.614173203 246.614173203,246.614173203 "/> 
<polygon class="st0" points="8.503937007,8.503937007 17.007874014,8.503937007 17.007874014,0.0 25.511811021,0.0 25.511811021,8.503937007 34.015748028,8.503937007 34.015748028,0.0 42.519685035,0.0 42.519685035,8.503937007 51.023622042,8.503937007 51.023622042,0.0 59.527559049,0.0 59.527559049,8.503937007 68.031496056,8.503937007 68.031496056,0.0 76.535433063,0.0 76.535433063,8.503937007 85.03937007,8.503937007 85.03937007,0.0 93.543307077,0.0 93.543307077,8.503937007 102.047244084,8.503937007 102.047244084,0.0 110.551181091,0.0 110.551181091,8.503937007 119.055118098,8.503937007 119.055118098,0.0 127.559055105,0.0 127.559055105,8.503937007 136.062992112,8.503937007 136.062992112,0.0 144.566929119,0.0 144.566929119,8.503937007 153.070866126,8.503937007 153.070866126,0.0 161.574803133,0.0 161.574803133,8.503937007 170.07874014,8.503937007 170.07874014,0.0 178.582677147,0.0 178.582677147,8.503937007 187.086614154,8.503937007 187.086614154,0.0 195.590551161,0.0 195.590551161,8.503937007 204.094488168,8.503937007 204.094488168,0.0 212.598425175,0.0 212.598425175,8.503937007 221.102362182,8.503937007 221.102362182,0.0 229.606299189,0.0 229.606299189,8.503937007 238.110236196,8.503937007 238.110236196,0.0 246.614173203,0.0 246.614173203,8.503937007 246.614173203,8.503937007 246.614173203,17.007874014 255.11811021,17.007874014 255.11811021,25.511811021 246.614173203,25.511811021 246.614173203,34.015748028 255.11811021,34.015748028 255.11811021,42.519685035 246.614173203,42.519685035 246.614173203,51.023622042 255.11811021,51.023622042 255.11811021,59.527559049 246.614173203,59.527559049 246.614173203,68.031496056 255.11811021,68.031496056 255.11811021,76.535433063 246.614173203,76.535433063 246.614173203,85.03937007 255.11811021,85.03937007 255.11811021,93.543307077 246.614173203,93.543307077 246.614173203,102.047244084 255.11811021,102.047244084 255.11811021,110.551181091 246.614173203,110.551181091 246.614173203,119.055118098 255.11811021,119.055118098 255.11811021,127.559055105 246.614173203,127.559055105 246.614173203,136.062992112 255.11811021,136.062992112 255.11811021,144.566929119 246.614173203,144.566929119 246.614173203,153.070866126 255.11811021,153.070866126 255.11811021,161.574803133 246.614173203,161.574803133 246.614173203,170.07874014 255.11811021,170.07874014 255.11811021,178.582677147 246.614173203,178.582677147 246.614173203,187.086614154 255.11811021,187.086614154 255.11811021,195.590551161 246.614173203,195.590551161 246.614173203,204.094488168 255.11811021,204.094488168 255.11811021,212.598425175 246.614173203,212.598425175 246.614173203,221.102362182 255.11811021,221.102362182 255.11811021,229.606299189 246.614173203,229.606299189 246.614173203,238.110236196 255.11811021,238.110236196 255.11811021,246.614173203 246.614173203,246.614173203 246.614173203,246.614173203 238.110236196,246.614173203 238.110236196,255.11811021 229.606299189,255.11811021 229.606299189,246.614173203 221.102362182,246.614173203 221.102362182,255.11811021 212.598425175,255.11811021 212.598425175,246.614173203 204.094488168,246.614173203 204.094488168,255.11811021 195.590551161,255.11811021 195.590551161,246.614173203 187.086614154,246.614173203 187.086614154,255.11811021 178.582677147,255.11811021 178.582677147,246.614173203 170.07874014,246.614173203 170.07874014,255.11811021 161.574803133,255.11811021 161.574803133,246.614173203 153.070866126,246.614173203 153.070866126,255.11811021 144.566929119,255.11811021 144.566929119,246.614173203 136.062992112,246.614173203 136.062992112,255.11811021 127.559055105,255.11811021 127.559055105,246.614173203 119.055118098,246.614173203 119.055118098,255.11811021 110.551181091,255.11811021 110.551181091,246.614173203 102.047244084,246.614173203 102.047244084,255.11811021 93.543307077,255.11811021 93.543307077,246.614173203 85.03937007,246.614173203 85.03937007,255.11811021 76.535433063,255.11811021 76.535433063,246.614173203 68.031496056,246.614173203 68.031496056,255.11811021 59.527559049,255.11811021 59.527559049,246.614173203 51.023622042,246.614173203 51.023622042,255.11811021 42.519685035,255.11811021 42.519685035,246.614173203 34.015748028,246.614173203 34.015748028,255.11811021 25.511811021,255.11811021 25.511811021,246.614173203 17.007874014,246.614173203 17.007874014,255.11811021 8.503937007,255.11811021 8.503937007,246.614173203 8.503937007,246.614173203 8.503937007,238.110236196 0.0,238.110236196 0.0,229.606299189 8.503937007,229.606299189 8.503937007,221.102362182 0.0,221.102362182 0.0,212.598425175 8.503937007,212.598425175 8.503937007,204.094488168 0.0,204.094488168 0.0,195.590551161 8.503937007,195.590551161 8.503937007,187.086614154 0.0,187.086614154 0.0,178.582677147 8.503937007,178.582677147 8.503937007,170.07874014 0.0,170.07874014 0.0,161.574803133 8.503937007,161.574803133 8.503937007,153.070866126 0.0,153.070866126 0.0,144.566929119 8.503937007,144.566929119 8.503937007,136.062992112 0.0,136.062992112 0.0,127.559055105 8.503937007,127.559055105 8.503937007,119.055118098 0.0,119.055118098 0.0,110.551181091 8.503937007,110.551181091 8.503937007,102.047244084 0.0,102.047244084 0.0,93.543307077 8.503937007,93.543307077 8.503937007,85.03937007 0.0,85.03937007 0.0,76.535433063 8.503937007,76.535433063 8.503937007,68.031496056 0.0,68.031496056 0.0,59.527559049 8.503937007,59.527559049 8.503937007,51.023622042 0.0,51.023622042 0.0,42.519685035 8.503937007,42.519685035 8.503937007,34.015748028 0.0,34.015748028 0.0,25.511811021 8.503937007,25.511811021 8.503937007,17.007874014 0.0,17.007874014 0.0,8.503937007 8.503937007,8.503937007 "/> 
</svg>