<?xml version="1.0" encoding="UTF-8"?><svg id="Layer_2" xmlns="http://www.w3.org/2000/svg" viewBox="0 0 567.93 567.93"><defs><style>.cls-1{fill:#86c545;}.cls-2,.cls-3,.cls-4{stroke:#231f20;stroke-miterlimit:10;}.cls-2,.cls-5,.cls-6{fill:#fff;}.cls-3{fill:#b5b5b6;}.cls-4{fill:none;}.cls-5{opacity:.48;}.cls-6{opacity:.46;}</style></defs><g id="Layer_1-2"><rect class="cls-1" x=".5" y=".5" width="566.93" height="566.93"/><g><rect class="cls-4" x=".5" y=".5" width="35.43" height="35.43"/><rect class="cls-4" x="35.93" y=".5" width="35.43" height="35.43"/><rect class="cls-4" x="71.37" y=".5" width="35.43" height="35.43"/><rect class="cls-4" x="106.8" y=".5" width="35.43" height="35.43"/><rect class="cls-4" x="142.23" y=".5" width="35.43" height="35.43"/><rect class="cls-4" x="177.67" y=".5" width="35.43" height="35.43"/><rect class="cls-4" x="213.1" y=".5" width="35.43" height="35.43"/><rect class="cls-4" x="248.53" y=".5" width="35.43" height="35.43"/><rect class="cls-4" x="283.96" y=".5" width="35.43" height="35.43"/><rect class="cls-4" x="319.4" y=".5" width="35.43" height="35.43"/><rect class="cls-4" x="354.83" y=".5" width="35.43" height="35.43"/><rect class="cls-4" x="390.26" y=".5" width="35.43" height="35.43"/><rect class="cls-4" x="425.7" y=".5" width="35.43" height="35.43"/><rect class="cls-4" x="461.13" y=".5" width="35.43" height="35.43"/><rect class="cls-4" x="496.56" y=".5" width="35.43" height="35.43"/><rect class="cls-4" x="532" y=".5" width="35.43" height="35.43"/><rect class="cls-4" x=".5" y="35.93" width="35.43" height="35.43"/><rect class="cls-4" x="35.93" y="35.93" width="35.43" height="35.43"/><rect class="cls-4" x="71.37" y="35.93" width="35.43" height="35.43"/><rect class="cls-4" x="106.8" y="35.93" width="35.43" height="35.43"/><rect class="cls-4" x="142.23" y="35.93" width="35.43" height="35.43"/><rect class="cls-4" x="177.67" y="35.93" width="35.43" height="35.43"/><rect class="cls-4" x="213.1" y="35.93" width="35.43" height="35.43"/><rect class="cls-4" x="248.53" y="35.93" width="35.43" height="35.43"/><rect class="cls-4" x="283.96" y="35.93" width="35.43" height="35.43"/><rect class="cls-4" x="319.4" y="35.93" width="35.43" height="35.43"/><rect class="cls-4" x="354.83" y="35.93" width="35.43" height="35.43"/><rect class="cls-4" x="390.26" y="35.93" width="35.43" height="35.43"/><rect class="cls-4" x="425.7" y="35.93" width="35.43" height="35.43"/><rect class="cls-4" x="461.13" y="35.93" width="35.43" height="35.43"/><rect class="cls-4" x="496.56" y="35.93" width="35.43" height="35.43"/><rect class="cls-4" x="532" y="35.93" width="35.43" height="35.43"/><rect class="cls-4" x=".5" y="71.37" width="35.43" height="35.43"/><rect class="cls-4" x="35.93" y="71.37" width="35.43" height="35.43"/><rect class="cls-4" x="71.37" y="71.37" width="35.43" height="35.43"/><rect class="cls-4" x="106.8" y="71.37" width="35.43" height="35.43"/><rect class="cls-4" x="142.23" y="71.37" width="35.43" height="35.43"/><rect class="cls-4" x="177.67" y="71.37" width="35.43" height="35.43"/><rect class="cls-4" x="213.1" y="71.37" width="35.43" height="35.43"/><rect class="cls-4" x="248.53" y="71.37" width="35.43" height="35.43"/><rect class="cls-4" x="283.96" y="71.37" width="35.43" height="35.43"/><rect class="cls-4" x="319.4" y="71.37" width="35.43" height="35.43"/><rect class="cls-4" x="354.83" y="71.37" width="35.43" height="35.43"/><rect class="cls-4" x="390.26" y="71.37" width="35.43" height="35.43"/><rect class="cls-4" x="425.7" y="71.37" width="35.43" height="35.43"/><rect class="cls-4" x="461.13" y="71.37" width="35.43" height="35.43"/><rect class="cls-4" x="496.56" y="71.37" width="35.43" height="35.43"/><rect class="cls-4" x="532" y="71.37" width="35.43" height="35.43"/><rect class="cls-4" x=".5" y="106.8" width="35.43" height="35.43"/><rect class="cls-4" x="35.93" y="106.8" width="35.43" height="35.43"/><rect class="cls-4" x="71.37" y="106.8" width="35.43" height="35.43"/><rect class="cls-4" x="106.8" y="106.8" width="35.43" height="35.43"/><rect class="cls-4" x="142.23" y="106.8" width="35.43" height="35.43"/><rect class="cls-4" x="177.67" y="106.8" width="35.43" height="35.43"/><rect class="cls-4" x="213.1" y="106.8" width="35.43" height="35.43"/><rect class="cls-4" x="248.53" y="106.8" width="35.43" height="35.43"/><rect class="cls-4" x="283.96" y="106.8" width="35.43" height="35.43"/><rect class="cls-4" x="319.4" y="106.8" width="35.43" height="35.43"/><rect class="cls-4" x="354.83" y="106.8" width="35.43" height="35.43"/><rect class="cls-4" x="390.26" y="106.8" width="35.43" height="35.43"/><rect class="cls-4" x="425.7" y="106.8" width="35.43" height="35.43"/><rect class="cls-4" x="461.13" y="106.8" width="35.43" height="35.43"/><rect class="cls-4" x="496.56" y="106.8" width="35.43" height="35.43"/><rect class="cls-4" x="532" y="106.8" width="35.43" height="35.43"/><rect class="cls-4" x=".5" y="142.23" width="35.43" height="35.43"/><rect class="cls-4" x="35.93" y="142.23" width="35.43" height="35.43"/><rect class="cls-4" x="71.37" y="142.23" width="35.43" height="35.43"/><rect class="cls-4" x="106.8" y="142.23" width="35.43" height="35.43"/><rect class="cls-4" x="142.23" y="142.23" width="35.43" height="35.43"/><rect class="cls-4" x="177.67" y="142.23" width="35.43" height="35.43"/><rect class="cls-4" x="213.1" y="142.23" width="35.43" height="35.43"/><rect class="cls-4" x="248.53" y="142.23" width="35.43" height="35.43"/><rect class="cls-4" x="283.96" y="142.23" width="35.43" height="35.43"/><rect class="cls-4" x="319.4" y="142.23" width="35.43" height="35.43"/><rect class="cls-4" x="354.83" y="142.23" width="35.43" height="35.43"/><rect class="cls-4" x="390.26" y="142.23" width="35.43" height="35.43"/><rect class="cls-4" x="425.7" y="142.23" width="35.43" height="35.43"/><rect class="cls-4" x="461.13" y="142.23" width="35.43" height="35.43"/><rect class="cls-4" x="496.56" y="142.23" width="35.43" height="35.43"/><rect class="cls-4" x="532" y="142.23" width="35.43" height="35.43"/><rect class="cls-4" x=".5" y="177.67" width="35.43" height="35.43"/><rect class="cls-4" x="35.93" y="177.67" width="35.43" height="35.43"/><rect class="cls-4" x="71.37" y="177.67" width="35.43" height="35.43"/><rect class="cls-4" x="106.8" y="177.67" width="35.43" height="35.43"/><rect class="cls-4" x="142.23" y="177.67" width="35.43" height="35.43"/><rect class="cls-4" x="177.67" y="177.67" width="35.43" height="35.43"/><rect class="cls-4" x="213.1" y="177.67" width="35.43" height="35.43"/><rect class="cls-4" x="248.53" y="177.67" width="35.43" height="35.43"/><rect class="cls-4" x="283.96" y="177.67" width="35.43" height="35.43"/><rect class="cls-4" x="319.4" y="177.67" width="35.43" height="35.43"/><rect class="cls-4" x="354.83" y="177.67" width="35.43" height="35.43"/><rect class="cls-4" x="390.26" y="177.67" width="35.43" height="35.43"/><rect class="cls-4" x="425.7" y="177.67" width="35.43" height="35.43"/><rect class="cls-4" x="461.13" y="177.67" width="35.43" height="35.43"/><rect class="cls-4" x="496.56" y="177.67" width="35.43" height="35.43"/><rect class="cls-4" x="532" y="177.67" width="35.43" height="35.43"/><rect class="cls-4" x=".5" y="213.1" width="35.43" height="35.43"/><rect class="cls-4" x="35.93" y="213.1" width="35.43" height="35.43"/><rect class="cls-4" x="71.37" y="213.1" width="35.43" height="35.43"/><rect class="cls-4" x="106.8" y="213.1" width="35.43" height="35.43"/><rect class="cls-4" x="142.23" y="213.1" width="35.43" height="35.43"/><rect class="cls-4" x="177.67" y="213.1" width="35.43" height="35.43"/><rect class="cls-4" x="213.1" y="213.1" width="35.43" height="35.43"/><rect class="cls-4" x="248.53" y="213.1" width="35.43" height="35.43"/><rect class="cls-4" x="283.96" y="213.1" width="35.43" height="35.43"/><rect class="cls-4" x="319.4" y="213.1" width="35.43" height="35.43"/><rect class="cls-4" x="354.83" y="213.1" width="35.43" height="35.43"/><rect class="cls-4" x="390.26" y="213.1" width="35.43" height="35.43"/><rect class="cls-4" x="425.7" y="213.1" width="35.43" height="35.43"/><rect class="cls-4" x="461.13" y="213.1" width="35.43" height="35.43"/><rect class="cls-4" x="496.56" y="213.1" width="35.43" height="35.43"/><rect class="cls-4" x="532" y="213.1" width="35.43" height="35.43"/><rect class="cls-4" x=".5" y="248.53" width="35.43" height="35.43"/><rect class="cls-4" x="35.93" y="248.53" width="35.43" height="35.43"/><rect class="cls-4" x="71.37" y="248.53" width="35.43" height="35.43"/><rect class="cls-4" x="106.8" y="248.53" width="35.43" height="35.43"/><rect class="cls-4" x="142.23" y="248.53" width="35.43" height="35.43"/><rect class="cls-4" x="177.67" y="248.53" width="35.43" height="35.43"/><rect class="cls-4" x="213.1" y="248.53" width="35.43" height="35.43"/><rect class="cls-4" x="248.53" y="248.53" width="35.43" height="35.43"/><rect class="cls-4" x="283.96" y="248.53" width="35.43" height="35.43"/><rect class="cls-4" x="319.4" y="248.53" width="35.43" height="35.43"/><rect class="cls-4" x="354.83" y="248.53" width="35.43" height="35.43"/><rect class="cls-4" x="390.26" y="248.53" width="35.43" height="35.43"/><rect class="cls-4" x="425.7" y="248.53" width="35.43" height="35.43"/><rect class="cls-4" x="461.13" y="248.53" width="35.43" height="35.43"/><rect class="cls-4" x="496.56" y="248.53" width="35.43" height="35.43"/><rect class="cls-4" x="532" y="248.53" width="35.43" height="35.43"/><rect class="cls-4" x=".5" y="283.96" width="35.43" height="35.43"/><rect class="cls-4" x="35.93" y="283.96" width="35.43" height="35.43"/><rect class="cls-4" x="71.37" y="283.96" width="35.43" height="35.43"/><rect class="cls-4" x="106.8" y="283.96" width="35.43" height="35.43"/><rect class="cls-4" x="142.23" y="283.96" width="35.43" height="35.43"/><rect class="cls-4" x="177.67" y="283.96" width="35.43" height="35.43"/><rect class="cls-4" x="213.1" y="283.96" width="35.43" height="35.43"/><rect class="cls-4" x="248.53" y="283.96" width="35.43" height="35.43"/><rect class="cls-4" x="283.96" y="283.96" width="35.43" height="35.43"/><rect class="cls-4" x="319.4" y="283.96" width="35.43" height="35.43"/><rect class="cls-4" x="354.83" y="283.96" width="35.43" height="35.43"/><rect class="cls-4" x="390.26" y="283.96" width="35.43" height="35.43"/><rect class="cls-4" x="425.7" y="283.96" width="35.43" height="35.43"/><rect class="cls-4" x="461.13" y="283.96" width="35.43" height="35.43"/><rect class="cls-4" x="496.56" y="283.96" width="35.43" height="35.43"/><rect class="cls-4" x="532" y="283.96" width="35.43" height="35.43"/><rect class="cls-4" x=".5" y="319.4" width="35.43" height="35.43"/><rect class="cls-4" x="35.93" y="319.4" width="35.43" height="35.43"/><rect class="cls-4" x="71.37" y="319.4" width="35.43" height="35.43"/><rect class="cls-4" x="106.8" y="319.4" width="35.43" height="35.43"/><rect class="cls-4" x="142.23" y="319.4" width="35.43" height="35.43"/><rect class="cls-4" x="177.67" y="319.4" width="35.43" height="35.43"/><rect class="cls-4" x="213.1" y="319.4" width="35.43" height="35.43"/><rect class="cls-4" x="248.53" y="319.4" width="35.43" height="35.43"/><rect class="cls-4" x="283.96" y="319.4" width="35.43" height="35.43"/><rect class="cls-4" x="319.4" y="319.4" width="35.43" height="35.43"/><rect class="cls-4" x="354.83" y="319.4" width="35.43" height="35.43"/><rect class="cls-4" x="390.26" y="319.4" width="35.43" height="35.43"/><rect class="cls-4" x="425.7" y="319.4" width="35.43" height="35.43"/><rect class="cls-4" x="461.13" y="319.4" width="35.43" height="35.43"/><rect class="cls-4" x="496.56" y="319.4" width="35.43" height="35.43"/><rect class="cls-4" x="532" y="319.4" width="35.43" height="35.43"/><rect class="cls-4" x=".5" y="354.83" width="35.43" height="35.43"/><rect class="cls-4" x="35.93" y="354.83" width="35.43" height="35.43"/><rect class="cls-4" x="71.37" y="354.83" width="35.43" height="35.43"/><rect class="cls-4" x="106.8" y="354.83" width="35.43" height="35.43"/><rect class="cls-4" x="142.23" y="354.83" width="35.43" height="35.43"/><rect class="cls-4" x="177.67" y="354.83" width="35.43" height="35.43"/><rect class="cls-4" x="213.1" y="354.83" width="35.43" height="35.43"/><rect class="cls-4" x="248.53" y="354.83" width="35.43" height="35.43"/><rect class="cls-4" x="283.96" y="354.83" width="35.43" height="35.43"/><rect class="cls-4" x="319.4" y="354.83" width="35.43" height="35.43"/><rect class="cls-4" x="354.83" y="354.83" width="35.43" height="35.43"/><rect class="cls-4" x="390.26" y="354.83" width="35.43" height="35.43"/><rect class="cls-4" x="425.7" y="354.83" width="35.43" height="35.43"/><rect class="cls-4" x="461.13" y="354.83" width="35.43" height="35.43"/><rect class="cls-4" x="496.56" y="354.83" width="35.43" height="35.43"/><rect class="cls-4" x="532" y="354.83" width="35.43" height="35.43"/><rect class="cls-4" x=".5" y="390.26" width="35.43" height="35.43"/><rect class="cls-4" x="35.93" y="390.26" width="35.43" height="35.43"/><rect class="cls-4" x="71.37" y="390.26" width="35.43" height="35.43"/><rect class="cls-4" x="106.8" y="390.26" width="35.43" height="35.43"/><rect class="cls-4" x="142.23" y="390.26" width="35.43" height="35.43"/><rect class="cls-4" x="177.67" y="390.26" width="35.43" height="35.43"/><rect class="cls-4" x="213.1" y="390.26" width="35.43" height="35.43"/><rect class="cls-4" x="248.53" y="390.26" width="35.43" height="35.43"/><rect class="cls-4" x="283.96" y="390.26" width="35.43" height="35.43"/><rect class="cls-4" x="319.4" y="390.26" width="35.43" height="35.43"/><rect class="cls-4" x="354.83" y="390.26" width="35.43" height="35.43"/><rect class="cls-4" x="390.26" y="390.26" width="35.43" height="35.43"/><rect class="cls-4" x="425.7" y="390.26" width="35.43" height="35.43"/><rect class="cls-4" x="461.13" y="390.26" width="35.43" height="35.43"/><rect class="cls-4" x="496.56" y="390.26" width="35.43" height="35.43"/><rect class="cls-4" x="532" y="390.26" width="35.43" height="35.43"/><rect class="cls-4" x=".5" y="425.7" width="35.43" height="35.43"/><rect class="cls-4" x="35.93" y="425.7" width="35.43" height="35.43"/><rect class="cls-4" x="71.37" y="425.7" width="35.43" height="35.43"/><rect class="cls-4" x="106.8" y="425.7" width="35.43" height="35.43"/><rect class="cls-4" x="142.23" y="425.7" width="35.43" height="35.43"/><rect class="cls-4" x="177.67" y="425.7" width="35.43" height="35.43"/><rect class="cls-4" x="213.1" y="425.7" width="35.43" height="35.43"/><rect class="cls-4" x="248.53" y="425.7" width="35.43" height="35.43"/><rect class="cls-4" x="283.96" y="425.7" width="35.43" height="35.43"/><rect class="cls-4" x="319.4" y="425.7" width="35.43" height="35.43"/><rect class="cls-4" x="354.83" y="425.7" width="35.43" height="35.43"/><rect class="cls-4" x="390.26" y="425.7" width="35.43" height="35.43"/><rect class="cls-4" x="425.7" y="425.7" width="35.43" height="35.43"/><rect class="cls-4" x="461.13" y="425.7" width="35.43" height="35.43"/><rect class="cls-4" x="496.56" y="425.7" width="35.43" height="35.43"/><rect class="cls-4" x="532" y="425.7" width="35.43" height="35.43"/><rect class="cls-4" x=".5" y="461.13" width="35.43" height="35.43"/><rect class="cls-4" x="35.93" y="461.13" width="35.43" height="35.43"/><rect class="cls-4" x="71.37" y="461.13" width="35.43" height="35.43"/><rect class="cls-4" x="106.8" y="461.13" width="35.43" height="35.43"/><rect class="cls-4" x="142.23" y="461.13" width="35.43" height="35.43"/><rect class="cls-4" x="177.67" y="461.13" width="35.43" height="35.43"/><rect class="cls-4" x="213.1" y="461.13" width="35.43" height="35.43"/><rect class="cls-4" x="248.53" y="461.13" width="35.43" height="35.43"/><rect class="cls-4" x="283.96" y="461.13" width="35.43" height="35.43"/><rect class="cls-4" x="319.4" y="461.13" width="35.43" height="35.43"/><rect class="cls-4" x="354.83" y="461.13" width="35.43" height="35.43"/><rect class="cls-4" x="390.26" y="461.13" width="35.43" height="35.43"/><rect class="cls-4" x="425.7" y="461.13" width="35.43" height="35.43"/><rect class="cls-4" x="461.13" y="461.13" width="35.43" height="35.43"/><rect class="cls-4" x="496.56" y="461.13" width="35.43" height="35.43"/><rect class="cls-4" x="532" y="461.13" width="35.43" height="35.43"/><rect class="cls-4" x=".5" y="496.56" width="35.43" height="35.43"/><rect class="cls-4" x="35.93" y="496.56" width="35.43" height="35.43"/><rect class="cls-4" x="71.37" y="496.56" width="35.43" height="35.43"/><rect class="cls-4" x="106.8" y="496.56" width="35.43" height="35.43"/><rect class="cls-4" x="142.23" y="496.56" width="35.43" height="35.43"/><rect class="cls-4" x="177.67" y="496.56" width="35.43" height="35.43"/><rect class="cls-4" x="213.1" y="496.56" width="35.43" height="35.43"/><rect class="cls-4" x="248.53" y="496.56" width="35.43" height="35.43"/><rect class="cls-4" x="283.96" y="496.56" width="35.43" height="35.43"/><rect class="cls-4" x="319.4" y="496.56" width="35.43" height="35.43"/><rect class="cls-4" x="354.83" y="496.56" width="35.43" height="35.43"/><rect class="cls-4" x="390.26" y="496.56" width="35.43" height="35.43"/><rect class="cls-4" x="425.7" y="496.56" width="35.43" height="35.43"/><rect class="cls-4" x="461.13" y="496.56" width="35.43" height="35.43"/><rect class="cls-4" x="496.56" y="496.56" width="35.43" height="35.43"/><rect class="cls-4" x="532" y="496.56" width="35.43" height="35.43"/><rect class="cls-4" x=".5" y="532" width="35.43" height="35.43"/><rect class="cls-4" x="35.93" y="532" width="35.43" height="35.43"/><rect class="cls-4" x="71.37" y="532" width="35.43" height="35.43"/><rect class="cls-4" x="106.8" y="532" width="35.43" height="35.43"/><rect class="cls-4" x="142.23" y="532" width="35.43" height="35.43"/><rect class="cls-4" x="177.67" y="532" width="35.43" height="35.43"/><rect class="cls-4" x="213.1" y="532" width="35.43" height="35.43"/><rect class="cls-4" x="248.53" y="532" width="35.43" height="35.43"/><rect class="cls-4" x="283.96" y="532" width="35.43" height="35.43"/><rect class="cls-4" x="319.4" y="532" width="35.43" height="35.43"/><rect class="cls-4" x="354.83" y="532" width="35.43" height="35.43"/><rect class="cls-4" x="390.26" y="532" width="35.43" height="35.43"/><rect class="cls-4" x="425.7" y="532" width="35.43" height="35.43"/><rect class="cls-4" x="461.13" y="532" width="35.43" height="35.43"/><rect class="cls-4" x="496.56" y="532" width="35.43" height="35.43"/><rect class="cls-4" x="532" y="532" width="35.43" height="35.43"/></g></g><g id="Layer_2-2"><rect class="cls-3" x="142.23" y="142.23" width="248.03" height="212.6"/><polygon class="cls-2" points="142.23 213.1 390.26 142.23 283.96 354.83 142.23 213.1"/><polygon class="cls-6" points="142.23 213.1 189.53 381.81 437.56 310.95 390.26 142.23 142.23 213.1"/><polygon class="cls-5" points="283.96 354.83 443.41 195.38 301.53 53.59 142.23 213.1 283.96 354.83"/><polygon class="cls-5" points="283.96 354.83 114.33 267.83 220.63 55.23 390.26 142.23 283.96 354.83"/></g></svg>